<svg xmlns="http://www.w3.org/2000/svg">
  <symbol id="search" viewBox="0 0 21 21">
    <ellipse cx="9.7666" cy="9.84078" rx="8.98856" ry="8.88424" stroke-width="1.5" stroke-linecap="round" stroke-linejoin="round"/>
    <path d="M16.0183 16.4814L19.5423 19.9555" stroke-width="1.5" stroke-linecap="round" stroke-linejoin="round"/>
  </symbol>
  <symbol id="buy" viewBox="0 0 21 20">
    <path d="M1 1.17578L3.08 1.5316L4.04301 12.8715C4.12001 13.7976 4.90301 14.5082 5.84301 14.5053H16.752C17.649 14.5072 18.41 13.8549 18.537 12.9772L19.486 6.49532C19.592 5.77083 19.083 5.09872 18.351 4.99395C18.287 4.98505 3.414 4.98011 3.414 4.98011" stroke-width="1.5" stroke-linecap="round" stroke-linejoin="round"/>
    <path d="M12.375 8.63337H15.1479" stroke-width="1.5" stroke-linecap="round" stroke-linejoin="round"/>
    <path fill-rule="evenodd" clip-rule="evenodd" d="M5.4043 17.9316C5.70527 17.9316 5.94824 18.1729 5.94824 18.4696C5.94824 18.7673 5.70527 19.0085 5.4043 19.0085C5.10333 19.0085 4.86035 18.7673 4.86035 18.4696C4.86035 18.1729 5.10333 17.9316 5.4043 17.9316Z" fill="#363853" stroke-width="1.5" stroke-linecap="round" stroke-linejoin="round"/>
    <path fill-rule="evenodd" clip-rule="evenodd" d="M16.6846 17.9316C16.9856 17.9316 17.2296 18.1729 17.2296 18.4696C17.2296 18.7673 16.9856 19.0085 16.6846 19.0085C16.3836 19.0085 16.1406 18.7673 16.1406 18.4696C16.1406 18.1729 16.3836 17.9316 16.6846 17.9316Z" fill="#363853" stroke-width="1.5" stroke-linecap="round" stroke-linejoin="round"/>
  </symbol>
  <symbol id="burger" viewBox="0 0 44 44">
    <g clip-path="url(#clip0)">
    <path d="M44 20.3359C44 18.6467 42.9108 17.2079 41.3982 16.6825C41.1658 11.4417 39.2092 7.41987 35.573 4.71723C32.2543 2.25065 27.6878 1 22 1C16.3122 1 11.7457 2.25065 8.42703 4.71731C4.79084 7.41987 2.83422 11.4418 2.60176 16.6826C1.08917 17.2079 0 18.6467 0 20.3359C0 21.3257 0.374172 22.2293 0.987852 22.9141C0.374172 23.5988 0 24.5024 0 25.4922C0 27.1918 1.10258 28.6378 2.6296 29.1551C3.18252 35.0454 8.18967 39.6719 14.2656 39.6719H29.7344C35.8103 39.6719 40.8175 35.0454 41.3704 29.1551C42.8974 28.6378 44 27.1918 44 25.4922C44 24.5024 43.6258 23.5988 43.0121 22.9141C43.6258 22.2293 44 21.3257 44 20.3359ZM22 3.57812C29.3933 3.57812 38.1513 5.85719 38.8034 16.4688H5.19655C5.84873 5.85719 14.6067 3.57812 22 3.57812ZM3.86719 19.0469H40.1328C40.8436 19.0469 41.4219 19.6251 41.4219 20.3359C41.4219 21.0467 40.8436 21.625 40.1328 21.625H3.86719C3.1564 21.625 2.57812 21.0467 2.57812 20.3359C2.57812 19.6251 3.1564 19.0469 3.86719 19.0469ZM29.7344 37.0938H14.2656C9.68456 37.0938 5.88302 33.7265 5.24958 29.3594H6.44531C7.30709 29.3594 7.57943 29.6525 8.12187 30.2366C8.78857 30.9545 9.70166 31.9375 11.6875 31.9375C13.6874 31.9375 14.5766 30.9444 15.226 30.2193C15.7387 29.6468 15.996 29.3594 16.8438 29.3594C17.6915 29.3594 17.9488 29.6468 18.4615 30.2193C19.1109 30.9444 20.0001 31.9375 22 31.9375C23.9999 31.9375 24.8891 30.9444 25.5385 30.2193C26.0512 29.6468 26.3085 29.3594 27.1562 29.3594C28.004 29.3594 28.2613 29.6468 28.774 30.2193C29.4234 30.9444 30.3126 31.9375 32.3125 31.9375C34.3124 31.9375 35.2016 30.9444 35.851 30.2193C36.3637 29.6468 36.621 29.3594 37.4688 29.3594H38.7504C38.117 33.7265 34.3154 37.0938 29.7344 37.0938ZM40.1328 26.7812H37.4688C35.4689 26.7812 34.5796 27.7743 33.9303 28.4995C33.4176 29.072 33.1603 29.3594 32.3125 29.3594C31.4647 29.3594 31.2074 29.072 30.6947 28.4995C30.0454 27.7743 29.1561 26.7812 27.1562 26.7812C25.1564 26.7812 24.2671 27.7743 23.6178 28.4995C23.1051 29.072 22.8478 29.3594 22 29.3594C21.1522 29.3594 20.8949 29.072 20.3822 28.4995C19.7329 27.7743 18.8436 26.7812 16.8438 26.7812C14.8439 26.7812 13.9546 27.7743 13.3053 28.4995C12.7926 29.072 12.5353 29.3594 11.6875 29.3594C10.8257 29.3594 10.5534 29.0662 10.0109 28.4821C9.34424 27.7643 8.43116 26.7812 6.44531 26.7812H3.86719C3.1564 26.7812 2.57812 26.203 2.57812 25.4922C2.57812 24.7814 3.1564 24.2031 3.86719 24.2031H40.1328C40.8436 24.2031 41.4219 24.7814 41.4219 25.4922C41.4219 26.203 40.8436 26.7812 40.1328 26.7812Z"/>
    <path d="M14.2656 13.8906C14.9776 13.8906 15.5547 13.3135 15.5547 12.6016C15.5547 11.8896 14.9776 11.3125 14.2656 11.3125C13.5537 11.3125 12.9766 11.8896 12.9766 12.6016C12.9766 13.3135 13.5537 13.8906 14.2656 13.8906Z"/>
    <path d="M29.7344 13.8906C30.4463 13.8906 31.0234 13.3135 31.0234 12.6016C31.0234 11.8896 30.4463 11.3125 29.7344 11.3125C29.0224 11.3125 28.4453 11.8896 28.4453 12.6016C28.4453 13.3135 29.0224 13.8906 29.7344 13.8906Z"/>
    <path d="M24.5781 11.3125C25.2901 11.3125 25.8672 10.7354 25.8672 10.0234C25.8672 9.31151 25.2901 8.73438 24.5781 8.73438C23.8662 8.73438 23.2891 9.31151 23.2891 10.0234C23.2891 10.7354 23.8662 11.3125 24.5781 11.3125Z"/>
    <path d="M19.4219 8.73438C20.1338 8.73438 20.7109 8.15724 20.7109 7.44531C20.7109 6.73338 20.1338 6.15625 19.4219 6.15625C18.7099 6.15625 18.1328 6.73338 18.1328 7.44531C18.1328 8.15724 18.7099 8.73438 19.4219 8.73438Z"/>
    </g>
    <defs>
    <clipPath id="clip0">
    <rect width="44" height="44"/>
    </clipPath>
    </defs>
  </symbol>
  <symbol id="pizza" viewBox="12 10 48 47">
    <g clip-path="url(#clip0)">
    <path d="M61.8701 31.1175C61.8679 31.4474 61.6772 31.7475 61.379 31.8884L27.1399 48.1287C26.7992 49.5418 25.8126 50.7796 24.3701 51.3773C21.9754 52.3691 19.2201 51.2279 18.2281 48.8331C15.8892 43.1862 14.7032 37.224 14.7032 31.112C14.7032 24.9999 15.8891 19.0377 18.2281 13.3908C18.471 12.8044 18.8195 12.2933 19.2427 11.8702C20.5477 10.5652 22.5618 10.0977 24.3701 10.8468C25.5867 11.3508 26.479 12.3105 26.9333 13.4464L61.389 30.3404C61.6852 30.4856 61.8722 30.7876 61.8701 31.1175ZM31.0339 44.3795L34.6625 42.6582C34.642 42.0096 34.3344 41.3959 33.8073 40.9913C33.343 40.6353 32.7679 40.4811 32.1878 40.5574C31.6077 40.6337 31.0925 40.9313 30.7359 41.3957C30.3798 41.8598 30.2256 42.4349 30.302 43.015C30.3724 43.5495 30.6309 44.0289 31.0339 44.3795ZM23.7124 12.4349C22.1932 11.8056 20.4451 12.5297 19.8162 14.0488C15.2584 25.0521 15.2584 37.1719 19.8161 48.1754C20.1209 48.9113 20.694 49.4844 21.43 49.7892C22.1659 50.094 22.9764 50.094 23.7123 49.7892C24.4482 49.4844 25.0213 48.9113 25.3261 48.1754C25.6309 47.4395 25.6309 46.629 25.3261 45.8931C23.3751 41.1832 22.386 36.2101 22.386 31.112C22.386 26.0139 23.3752 21.041 25.3261 16.331C25.9555 14.8119 25.2315 13.064 23.7124 12.4349ZM47.5385 25.4636C47.4849 25.5199 47.433 25.5781 47.3852 25.6402C47.0291 26.1044 46.875 26.6795 46.9514 27.2595C47.0277 27.8396 47.3255 28.3552 47.7896 28.7114C48.7478 29.4466 50.1252 29.2653 50.8609 28.307C51.0878 28.0113 51.2318 27.6646 51.2868 27.3012L47.5385 25.4636ZM52.8723 28.0789C52.7374 28.5361 52.5195 28.9688 52.2244 29.3533C50.9126 31.0642 48.4534 31.3872 46.7432 30.0749C45.9148 29.4393 45.3836 28.5191 45.2473 27.4838C45.116 26.4867 45.3672 25.4982 45.954 24.6866L41.2145 22.3627L40.8913 24.8176C40.8293 25.288 40.3976 25.6195 39.9271 25.5574C39.4565 25.4954 39.1254 25.0637 39.1873 24.5932L39.5861 21.5642L27.2596 15.5202C27.2252 16.0128 27.1134 16.5079 26.9144 16.9886C23.1419 26.0962 23.1419 36.1276 26.9144 45.2351C27.0456 45.5518 27.1384 45.8749 27.197 46.1994L29.4045 45.1523C28.971 44.6052 28.6916 43.9494 28.5981 43.2394C28.4617 42.2041 28.7368 41.1777 29.3725 40.3494C29.479 40.2106 29.5932 40.0803 29.7149 39.9587C30.3194 39.3542 31.1017 38.9668 31.9635 38.8533C32.9989 38.717 34.0251 38.9921 34.8537 39.6277C35.5974 40.1985 36.0949 41.0028 36.2898 41.8864L46.5369 37.0259L46.132 36.0485C45.9949 35.7175 46.0799 35.35 46.3183 35.1115C46.3958 35.0341 46.4895 34.9703 46.5971 34.9257C47.0355 34.744 47.5383 34.9523 47.7199 35.3908L48.0918 36.2884L59.0323 31.099L52.8723 28.0789Z"/>
    <path d="M21.3733 39.3603C21.3744 39.365 21.377 39.3777 21.3779 39.3825C21.4709 39.8477 21.1693 40.2992 20.7042 40.3925C20.2398 40.4856 19.7876 40.1845 19.6928 39.7208C19.6304 39.4257 19.7276 39.1335 19.9265 38.9346C20.039 38.822 20.1841 38.7395 20.351 38.7032C20.8148 38.6024 21.2725 38.8966 21.3733 39.3603Z"/>
    <path d="M21.9588 41.7941C22.4049 43.4245 22.9592 45.0435 23.6063 46.6058C23.788 47.0443 23.5794 47.5471 23.1411 47.7285C22.7026 47.9102 22.2 47.7019 22.0184 47.2634C21.3438 45.6348 20.7661 43.9472 20.3011 42.2477C20.2167 41.939 20.3116 41.6236 20.5227 41.4125C20.6248 41.3104 20.754 41.2327 20.9031 41.1919C21.3609 41.0668 21.8336 41.3363 21.9588 41.7941Z"/>
    <path d="M42.3514 35.4321C42.2469 35.5684 42.1326 35.6988 42.0118 35.8196C40.6313 37.2 38.4209 37.3437 36.8703 36.1538C35.1602 34.8416 34.8364 32.3828 36.1486 30.6727C36.2531 30.5363 36.3674 30.406 36.4882 30.2852C37.8686 28.9048 40.079 28.7611 41.6298 29.9511C43.3398 31.2633 43.6635 33.722 42.3514 35.4321ZM40.5835 31.3146C39.7145 30.6478 38.4764 30.7277 37.7036 31.5006C37.6356 31.5685 37.5712 31.642 37.5122 31.719C36.7769 32.6773 36.9584 34.0549 37.9166 34.7903C38.7856 35.457 40.0235 35.377 40.7964 34.6042C40.8643 34.5363 40.9288 34.4628 40.9878 34.3858C41.7229 33.4275 41.5416 32.0498 40.5835 31.3146Z" />
    <path d="M34.6346 28.0316C34.53 28.168 34.4158 28.2983 34.295 28.4191C32.9145 29.7996 30.7041 29.9433 29.1534 28.7533C28.3249 28.1177 27.7937 27.1975 27.6574 26.1622C27.521 25.127 27.796 24.1006 28.4316 23.2721C28.5362 23.1359 28.6505 23.0056 28.7712 22.8849C30.1516 21.5045 32.3621 21.3607 33.9129 22.5507C35.623 23.8627 35.9466 26.3215 34.6346 28.0316ZM32.8667 23.914C31.9976 23.2473 30.7595 23.3273 29.9867 24.1001C29.9188 24.168 29.8544 24.2415 29.7954 24.3184C29.4393 24.7826 29.2852 25.3577 29.3615 25.9378C29.4378 26.5179 29.7355 27.0335 30.1998 27.3897C31.0687 28.0565 32.3068 27.9765 33.0796 27.2037C33.1475 27.1358 33.212 27.0623 33.271 26.9853C34.0062 26.0272 33.8248 24.6494 32.8667 23.914Z"/>
    <path d="M33.1442 34.5569L31.5224 36.6706C31.234 37.0473 30.694 37.1182 30.3175 36.8293C29.9409 36.5404 29.8699 36.0009 30.1588 35.6244L31.7806 33.5108C31.8039 33.4803 31.829 33.4518 31.8554 33.4254C32.1556 33.1252 32.6394 33.0866 32.9854 33.3521C33.362 33.6409 33.4331 34.1804 33.1442 34.5569Z" />
    <path d="M27.7126 31.0196L28.801 32.4378C29.0899 32.8144 29.0191 33.3539 28.6424 33.6427C28.2658 33.9316 27.7264 33.8607 27.4375 33.4841L26.3492 32.0659C26.0836 31.7198 26.1221 31.2361 26.4224 30.9358C26.4489 30.9094 26.4773 30.8843 26.5078 30.861C26.8843 30.5721 27.4237 30.6431 27.7126 31.0196Z" />
    </g>
    <!-- <defs>
    <clipPath id="clip0">
    <rect width="44" height="44" fill="white" transform="matrix(0.707107 -0.707107 -0.707107 -0.707107 31.1128 62.2254)"/>
    </clipPath>
    </defs> -->
  </symbol>
  <symbol id="sandwich" viewBox="0 0 44 44">
    <g clip-path="url(#clip0)">
    <path d="M41.7999 6.59987H40.3332V5.13318C40.3332 3.9182 39.3482 2.93318 38.1332 2.93318H36.3865L35.3253 0.810953C35.0787 0.312343 34.5697 -0.00235988 34.0134 -0.000125509H32.9999C32.1899 -0.000125509 31.5333 0.656523 31.5333 1.46657V2.93326H23.4666C22.2515 2.93326 21.2666 3.91819 21.2666 5.13327V6.59987H19.7999C18.585 6.59987 17.5999 7.58489 17.5999 8.79987V10.2666C17.5999 11.0766 18.2566 11.7333 19.0666 11.7333H19.1444L20.0024 19.31L16.4692 18.4799C16.2909 18.2056 16.1025 17.9336 15.8928 17.6666L14.6461 12.3008C14.5691 11.969 14.2739 11.734 13.9333 11.7332H9.71956C7.73148 9.98126 5.38187 9.18926 3.6094 9.71064L2.53287 8.53734C2.12604 8.09321 1.48692 7.9472 0.927639 8.17064C0.367413 8.38652 -0.00160307 8.92552 -5.61906e-05 9.52587V41.8146C0.00157662 43.0208 0.97903 43.9982 2.18525 43.9999H38.1332C38.506 43.9996 38.8193 43.7198 38.8615 43.3494L42.4541 11.7332H42.5333C43.3434 11.7332 44 11.0765 44 10.2665V8.79987C43.9999 7.58489 43.015 6.59987 41.7999 6.59987ZM32.9999 1.46657H34.0134L34.7467 2.93326H32.9999V1.46657ZM22.7332 5.13318C22.7332 4.72816 23.0616 4.39987 23.4666 4.39987H38.1332C38.5383 4.39987 38.8666 4.72816 38.8666 5.13318V6.59987H22.7332V5.13318ZM20.6799 20.9732L20.7262 20.9819L21.3187 21.1227L21.7162 25.2844C20.5644 24.469 19.1863 24.0346 17.7753 24.0421C18.0469 22.7482 17.9031 21.4017 17.3646 20.1943L20.6799 20.9732ZM22.1129 27.4596L22.1224 27.4676C22.388 27.7134 22.6403 27.9734 22.8777 28.2464C23.7501 29.2199 24.3917 30.3778 24.7543 31.6336C24.8782 32.0711 24.9421 32.5233 24.9442 32.9779L18.0949 25.5081C19.6184 25.6787 21.0369 26.3676 22.1129 27.4596ZM14.385 18.1396V18.1382C15.9676 19.9569 16.7046 22.1415 16.3548 23.6096L8.89164 15.4733C10.3972 15.1366 12.6866 16.1941 14.385 18.1396ZM13.3466 13.1999L13.9333 15.6969C13.344 15.237 12.7017 14.8495 12.0201 14.5426C11.7429 14.0738 11.4329 13.6251 11.0924 13.1999H13.3466ZM9.66018 13.7455H9.6631C9.72394 13.8152 9.77387 13.8922 9.83248 13.9655C9.14404 13.9021 8.45087 14.0185 7.82094 14.3036L4.80617 11.016C6.28026 11.0373 8.2038 12.0742 9.66018 13.7455ZM30.737 42.1025C30.6235 42.3636 30.366 42.5327 30.0812 42.5333H23.4666H2.18525C1.7883 42.5333 1.46655 42.2115 1.46655 41.8146L1.45332 9.53327L16.1721 25.5815V25.5852L24.8166 35.0093L24.8262 35.0203L29.5679 40.1917C29.5848 40.2137 29.6024 40.2357 29.6215 40.257L30.6049 41.3291C30.7987 41.5377 30.8506 41.8413 30.737 42.1025ZM26.1976 34.3448C26.3318 33.9069 26.4 33.4513 26.3999 32.9933C26.7852 33.3182 27.1442 33.673 27.4736 34.0544C27.8832 34.5225 28.2469 35.0289 28.5596 35.5666C28.9879 36.2866 29.2906 37.0742 29.455 37.8956L26.1976 34.3448ZM37.4784 42.5333H32.1361C32.4108 41.7734 32.2366 40.9237 31.6851 40.3333L30.9466 39.5266C31.0915 38.299 30.8935 37.0552 30.3746 35.9333H38.2286L37.4784 42.5333ZM38.3951 34.4666H29.5951C29.2941 33.9836 28.9568 33.5242 28.586 33.0923C27.8643 32.2545 27.0171 31.534 26.0743 30.956C25.6434 29.5974 24.931 28.3447 23.9836 27.2798C23.7636 27.0305 23.5436 26.798 23.3126 26.5743L22.7333 20.4635C22.7035 20.1508 22.4779 19.892 22.1723 19.8196L21.5226 19.6656L21.3686 18.3332H40.2292L38.3951 34.4666ZM40.3956 16.8666H21.2021L20.6213 11.7333H40.9786L40.3956 16.8666ZM42.5332 10.2666H19.0666V8.79987C19.0666 8.39485 19.3949 8.06657 19.7999 8.06657H41.7999C42.205 8.06657 42.5332 8.39485 42.5332 8.79987V10.2666Z"/>
    <path d="M31.1006 32.2667C31.1423 32.2667 31.1834 32.2608 31.2245 32.2594C31.2355 32.2594 31.2465 32.2667 31.2575 32.2667C31.2943 32.2644 31.3308 32.2593 31.3667 32.2513C32.5147 32.1738 33.5724 31.6017 34.2655 30.6835C35.1895 29.3853 35.4536 27.73 34.9798 26.2087C34.8778 25.8288 34.7847 25.4563 34.6945 25.0962C34.1225 22.8031 33.5762 20.6405 31.2596 20.543C31.2362 20.543 31.2142 20.5386 31.1907 20.5386C31.1672 20.5386 31.1328 20.5335 31.1005 20.5335C28.5089 20.5335 26.3998 23.1654 26.3998 26.4002C26.3998 29.6349 28.5089 32.2667 31.1006 32.2667ZM31.6682 22.11C32.4264 22.4078 32.7601 23.4014 33.2719 25.4511C33.3636 25.8178 33.4589 26.202 33.5652 26.5914C33.9163 27.6723 33.7448 28.855 33.101 29.7916C32.8673 30.0981 32.5682 30.3486 32.2254 30.5249C32.2006 29.2643 31.9524 28.0181 31.4921 26.8443C31.4188 26.6155 31.3454 26.3947 31.2809 26.1843C30.8542 24.7962 31.3542 22.9973 31.6682 22.11ZM30.0922 22.22C29.615 23.6363 29.5416 25.1577 29.8802 26.6134C29.9477 26.8334 30.0225 27.0614 30.1002 27.2983C30.4669 28.4174 30.9069 29.7704 30.7272 30.7662C29.1198 30.5154 27.8665 28.6542 27.8665 26.4C27.8666 24.453 28.8016 22.8001 30.0922 22.22Z" />
    <path d="M3.88139 38.5631L3.36293 39.0815C3.17232 39.2657 3.09584 39.5383 3.16296 39.7947C3.23007 40.0512 3.43031 40.2514 3.68666 40.3184C3.9431 40.3855 4.21569 40.3091 4.39985 40.1184L4.91831 39.6C5.19624 39.3123 5.19228 38.8548 4.90938 38.572C4.62656 38.2891 4.16911 38.2851 3.88139 38.5631Z" />
    <path d="M10.8929 33.6263C11.1794 33.3398 11.1794 32.8752 10.8929 32.5886C10.6064 32.3021 10.1418 32.3021 9.8552 32.5886L9.33673 33.1071C9.15137 33.2923 9.07892 33.5624 9.14664 33.8155C9.21436 34.0686 9.41202 34.2664 9.6651 34.3343C9.91819 34.4022 10.1883 34.3299 10.3737 34.1447L10.8929 33.6263Z" />
    <path d="M4.39995 31.7482L3.88149 32.2667C3.69088 32.4508 3.61439 32.7234 3.68151 32.9799C3.74863 33.2362 3.94886 33.4365 4.20521 33.5036C4.46165 33.5707 4.73425 33.4942 4.91841 33.3036L5.43687 32.7851C5.71479 32.4974 5.71084 32.04 5.42793 31.7572C5.14511 31.4742 4.68767 31.4703 4.39995 31.7482Z" />
    <path d="M4.39995 26.6148L3.88149 27.1333C3.69088 27.3175 3.61439 27.5901 3.68151 27.8465C3.74863 28.1028 3.94886 28.3031 4.20521 28.3702C4.46165 28.4373 4.73425 28.3608 4.91841 28.1702L5.43687 27.6518C5.71479 27.364 5.71084 26.9066 5.42793 26.6238C5.14511 26.3409 4.68767 26.337 4.39995 26.6148Z" />
    <path d="M11 38.5631L10.4815 39.0815C10.2909 39.2657 10.2144 39.5383 10.2815 39.7947C10.3487 40.0512 10.5489 40.2514 10.8053 40.3184C11.0617 40.3855 11.3343 40.3091 11.5184 40.1184L12.0369 39.6C12.3148 39.3123 12.3109 38.8548 12.028 38.572C11.7451 38.2891 11.2877 38.2851 11 38.5631Z" />
    <path d="M16.3481 38.5631L15.8297 39.0815C15.6391 39.2657 15.5626 39.5383 15.6297 39.7947C15.6968 40.0511 15.897 40.2514 16.1534 40.3184C16.4098 40.3855 16.6824 40.309 16.8666 40.1184L17.385 39.6C17.663 39.3123 17.659 38.8548 17.3761 38.572C17.0932 38.2892 16.6358 38.2851 16.3481 38.5631Z"/>
    </g>
    <defs>
    <clipPath id="clip0">
    <rect width="44" height="44" fill="white"/>
    </clipPath>
    </defs>
  </symbol>
  <symbol id="food" viewBox="0 0 44 44">
    <g clip-path="url(#clip0)">
    <path d="M15.1315 13.5668H17.2563C17.8077 13.5668 18.2562 14.0153 18.2562 14.5667V16.0316C18.2562 16.3875 18.5448 16.6761 18.9007 16.6761C19.2567 16.6761 19.5453 16.3875 19.5453 16.0316V14.5667C19.5453 13.3045 18.5184 12.2777 17.2563 12.2777H15.1315C14.5894 12.2777 14.1484 11.8367 14.1484 11.2946C14.1484 10.7525 14.5894 10.3116 15.1315 10.3116H19.843C21.0959 10.3116 22.1151 9.29226 22.1151 8.03937C22.1151 6.78649 21.0958 5.76727 19.843 5.76727H16.0738C15.7179 5.76727 15.4293 6.05585 15.4293 6.4118C15.4293 6.76776 15.7179 7.05634 16.0738 7.05634H19.843C20.3851 7.05634 20.8261 7.49737 20.8261 8.03937C20.8261 8.58147 20.385 9.0225 19.843 9.0225H15.1315C13.8786 9.0225 12.8593 10.0418 12.8593 11.2946C12.8593 12.5475 13.8786 13.5668 15.1315 13.5668Z" />
    <path d="M7.38855 17.8925H9.49711C10.0414 17.8925 10.4844 18.3355 10.4844 18.8799V20.3336C10.4844 20.6895 10.7729 20.9781 11.1289 20.9781C11.4848 20.9781 11.7734 20.6895 11.7734 20.3336V18.8799C11.7734 17.6247 10.7522 16.6035 9.49711 16.6035H7.38855C6.85333 16.6035 6.41797 16.168 6.41797 15.6329C6.41797 15.0978 6.85342 14.6623 7.38855 14.6623H9.85384C10.2098 14.6623 10.4984 14.3737 10.4984 14.0178C10.4984 13.6618 10.2098 13.3733 9.85384 13.3733H7.38855C6.14254 13.3733 5.12891 14.3869 5.12891 15.6329C5.12891 16.8789 6.14254 17.8925 7.38855 17.8925Z"/>
    <path d="M25.6523 26.8125C26.0083 26.8125 26.2969 26.5239 26.2969 26.168C26.2969 25.812 26.0083 25.5234 25.6523 25.5234C25.2964 25.5234 25.0078 25.812 25.0078 26.168C25.0078 26.5239 25.2964 26.8125 25.6523 26.8125Z"/>
    <path d="M28.832 28.2734C29.188 28.2734 29.4766 27.9849 29.4766 27.6289C29.4766 27.2729 29.188 26.9844 28.832 26.9844C28.4761 26.9844 28.1875 27.2729 28.1875 27.6289C28.1875 27.9849 28.4761 28.2734 28.832 28.2734Z"/>
    <path d="M30.7227 30.5078C31.0786 30.5078 31.3672 30.2193 31.3672 29.8633C31.3672 29.5073 31.0786 29.2188 30.7227 29.2188C30.3667 29.2188 30.0781 29.5073 30.0781 29.8633C30.0781 30.2193 30.3667 30.5078 30.7227 30.5078Z"/>
    <path d="M28.0586 25.2656C28.4146 25.2656 28.7031 24.9771 28.7031 24.6211C28.7031 24.2651 28.4146 23.9766 28.0586 23.9766C27.7026 23.9766 27.4141 24.2651 27.4141 24.6211C27.4141 24.9771 27.7026 25.2656 28.0586 25.2656Z"/>
    <path d="M25.9102 30.9375C26.2661 30.9375 26.5547 30.6489 26.5547 30.293C26.5547 29.937 26.2661 29.6485 25.9102 29.6485C25.5542 29.6485 25.2656 29.937 25.2656 30.293C25.2656 30.6489 25.5542 30.9375 25.9102 30.9375Z" />
    <path d="M42.9114 22.811H41.083L41.9867 20.9433C43.1331 20.7151 44 19.7015 44 18.489C44 17.2454 43.0882 16.2112 41.8981 16.0187C40.5827 13.6496 38.0131 11.8702 34.8968 11.1599V11.1108C34.8968 10.7548 34.6083 10.4663 34.2523 10.4663C33.9573 10.4663 33.7091 10.6647 33.6326 10.9352C33.2401 10.8846 32.8407 10.8518 32.4363 10.835C32.333 10.6173 32.1116 10.4663 31.8545 10.4663C31.5973 10.4663 31.376 10.6173 31.2726 10.835C30.8681 10.8518 30.4687 10.8846 30.0762 10.9353C29.9998 10.6648 29.7516 10.4663 29.4565 10.4663C29.1005 10.4663 28.812 10.7548 28.812 11.1108V11.1599C25.6958 11.8702 23.1261 13.6496 21.8108 16.0187C20.6207 16.2112 19.709 17.2454 19.709 18.489C19.709 18.5616 19.7123 18.6334 19.7184 18.7044C16.7427 18.9811 14.0692 20.2243 12.0633 22.0897H8.01359C7.73755 22.0897 7.4904 22.2135 7.32316 22.4081H5.43039C5.12033 21.6246 4.35067 21.071 3.47342 21.071C2.31344 21.071 1.36976 22.0147 1.36976 23.1747C1.36976 23.2738 1.37758 23.3718 1.39124 23.4683C0.580851 23.7609 0 24.5376 0 25.4475C0 25.8515 0.114727 26.2398 0.325445 26.5722C0.114727 26.9047 0 27.2931 0 27.6971C0 28.8571 0.94368 29.8007 2.10366 29.8007C2.98091 29.8007 3.75057 29.2471 4.06063 28.4637H5.76537C5.84358 28.751 6.0592 28.988 6.35087 29.0871L8.37177 29.7733C8.35974 29.9816 8.35321 30.1912 8.35321 30.4022C8.35321 30.601 8.35888 30.7989 8.36945 30.9961C8.05346 31.0724 7.75852 31.2032 7.49607 31.3792C7.06398 31.0895 6.54491 30.9198 5.98666 30.9198C4.48791 30.9198 3.26863 32.1391 3.26863 33.6378C3.26863 33.6608 3.27035 33.6834 3.27095 33.7062H2.51685C2.09129 33.7062 1.71411 33.9452 1.53244 34.33C1.35077 34.7148 1.40585 35.1579 1.6763 35.4865L3.6098 37.836C3.81743 38.0881 4.12371 38.2328 4.45036 38.2328H31.7103C32.0663 38.2328 32.3548 37.9442 32.3548 37.5882C32.3548 37.2323 32.0663 36.9437 31.7103 36.9437H4.54498L2.94147 34.9952H42.4853L40.8818 36.9437H34.7181C34.362 36.9437 34.0735 37.2323 34.0735 37.5882C34.0735 37.9442 34.362 38.2328 34.7181 38.2328H40.9764C41.3031 38.2328 41.6095 38.088 41.8169 37.8359L43.7504 35.4865C44.0207 35.1579 44.0759 34.7148 43.8942 34.33C43.7126 33.9452 43.3354 33.7062 42.9099 33.7062H42.2716C42.905 32.6101 43.143 31.3111 42.9119 30.0347C42.8639 29.7702 42.657 29.5632 42.3925 29.5153C40.6466 29.1993 38.857 29.758 37.6048 31.0101C37.5283 31.0866 37.4554 31.1659 37.3842 31.2463C37.0148 31.0462 36.594 30.9302 36.1474 30.9215V29.695H36.835C37.925 29.695 38.8117 28.8083 38.8117 27.7184V26.8532H42.9114C43.5116 26.8532 44 26.3648 44 25.7646V23.8996C44 23.2993 43.5116 22.811 42.9114 22.811ZM6.29054 33.7063H4.56002C4.5589 33.6836 4.5577 33.6609 4.5577 33.6379C4.5577 32.85 5.1987 32.209 5.98666 32.209C6.21079 32.209 6.42254 32.2615 6.61126 32.354C6.40535 32.7366 6.28813 33.1738 6.28813 33.6379C6.28822 33.6609 6.28994 33.6834 6.29054 33.7063ZM38.5163 31.9217C39.3595 31.0786 40.5223 30.6483 41.7005 30.7268C41.7727 31.8121 41.412 32.8848 40.6953 33.7063H39.6325L40.5131 32.8257C40.7648 32.5739 40.7648 32.1658 40.5131 31.9142C40.2613 31.6625 39.8533 31.6625 39.6015 31.9142L38.6882 32.8275C38.6075 32.5699 38.4893 32.3287 38.3402 32.1101C38.3969 32.0457 38.4553 31.9827 38.5163 31.9217ZM25.5032 13.9423C26.4787 13.2887 27.6054 12.7985 28.812 12.4902V13.1534C28.812 13.5094 29.1005 13.798 29.4565 13.798C29.8126 13.798 30.1011 13.5094 30.1011 13.1534V12.2346C30.4665 12.1826 30.8368 12.1482 31.2099 12.1291V13.1534C31.2099 13.5094 31.4984 13.798 31.8545 13.798C32.2105 13.798 32.499 13.5094 32.499 13.1534V12.1291C32.8721 12.1483 33.2424 12.1827 33.6077 12.2346V13.1534C33.6077 13.5094 33.8962 13.798 34.2523 13.798C34.6083 13.798 34.8968 13.5094 34.8968 13.1534V12.4902C36.1035 12.7985 37.2302 13.2887 38.2057 13.9423C39.1561 14.5791 39.9304 15.3479 40.4945 16.1983C40.2768 16.2941 40.0729 16.4201 39.89 16.5733C39.4452 16.2006 38.8773 15.9862 38.2829 15.9862C37.6885 15.9862 37.1205 16.2005 36.6758 16.5733C36.231 16.2006 35.663 15.9862 35.0687 15.9862C34.4743 15.9862 33.9063 16.2005 33.4616 16.5733C33.0168 16.2006 32.4488 15.9862 31.8545 15.9862C31.26 15.9862 30.6921 16.2005 30.2473 16.5733C29.8025 16.2006 29.2346 15.9862 28.6402 15.9862C28.0458 15.9862 27.4778 16.2005 27.0331 16.5733C26.5884 16.2006 26.0204 15.9862 25.426 15.9862C24.8316 15.9862 24.2637 16.2006 23.8189 16.5733C23.6361 16.4201 23.4321 16.2941 23.2144 16.1983C23.7785 15.3479 24.5528 14.579 25.5032 13.9423ZM22.2117 17.2752C22.642 17.2752 23.0441 17.5078 23.2612 17.8822C23.3765 18.081 23.5889 18.2035 23.8188 18.2035C24.0486 18.2035 24.261 18.0811 24.3763 17.8823C24.5935 17.5078 24.9957 17.2752 25.4259 17.2752C25.8562 17.2752 26.2584 17.5078 26.4755 17.8822C26.5908 18.081 26.8031 18.2035 27.033 18.2035C27.2629 18.2035 27.4752 18.0811 27.5906 17.8822C27.8077 17.5078 28.2098 17.2752 28.6401 17.2752C29.0703 17.2752 29.4725 17.5078 29.6898 17.8823C29.8051 18.0811 30.0175 18.2035 30.2472 18.2035C30.4771 18.2035 30.6895 18.0811 30.8048 17.8822C31.0219 17.5078 31.4241 17.2752 31.8544 17.2752C32.2846 17.2752 32.6868 17.5078 32.904 17.8823C33.0192 18.0811 33.2317 18.2035 33.4615 18.2035C33.6914 18.2035 33.9037 18.0811 34.019 17.8822C34.2361 17.5078 34.6383 17.2752 35.0686 17.2752C35.4988 17.2752 35.901 17.5078 36.1182 17.8823C36.2336 18.0811 36.4459 18.2035 36.6757 18.2035C36.9056 18.2035 37.118 18.0811 37.2333 17.8822C37.4504 17.5078 37.8525 17.2752 38.2828 17.2752C38.713 17.2752 39.1152 17.5078 39.3325 17.8823C39.4477 18.0811 39.6602 18.2035 39.89 18.2035C40.1198 18.2035 40.3322 18.0811 40.4475 17.8822C40.6646 17.5078 41.0668 17.2752 41.4971 17.2752C42.1663 17.2752 42.7108 17.8196 42.7108 18.4889C42.7108 19.1582 42.1663 19.7026 41.4971 19.7026C41.0668 19.7026 40.6646 19.4699 40.4475 19.0955C40.3322 18.8967 40.1198 18.7743 39.89 18.7743C39.6602 18.7743 39.4477 18.8966 39.3325 19.0954C39.1152 19.4699 38.713 19.7026 38.2828 19.7026C37.8525 19.7026 37.4504 19.4699 37.2333 19.0955C37.118 18.8967 36.9056 18.7743 36.6757 18.7743C36.4459 18.7743 36.2335 18.8966 36.1182 19.0954C35.901 19.4699 35.4988 19.7026 35.0686 19.7026C34.6383 19.7026 34.2361 19.4699 34.019 19.0955C33.9037 18.8967 33.6914 18.7743 33.4615 18.7743C33.2317 18.7743 33.0192 18.8966 32.904 19.0954C32.6868 19.4699 32.2846 19.7026 31.8544 19.7026C31.4241 19.7026 31.0219 19.4699 30.8048 19.0955C30.6895 18.8967 30.4771 18.7743 30.2472 18.7743C30.0175 18.7743 29.805 18.8966 29.6898 19.0954C29.4725 19.4699 29.0703 19.7026 28.6401 19.7026C28.2098 19.7026 27.8077 19.4699 27.5906 19.0955C27.4752 18.8967 27.2629 18.7743 27.033 18.7743C26.8031 18.7743 26.5908 18.8966 26.4755 19.0955C26.3486 19.3143 26.1583 19.4842 25.9363 19.588C24.4222 18.9848 22.7569 18.6492 21.0094 18.6459C21.0026 18.5944 20.998 18.5422 20.998 18.4889C20.998 17.8196 21.5424 17.2752 22.2117 17.2752ZM8.39163 23.3786H10.8635C10.6095 23.695 10.3712 24.0227 10.1518 24.3624H8.39163V23.3786ZM5.7328 27.1747H3.5567C3.22145 27.1747 2.94216 27.4317 2.9144 27.7658C2.87968 28.1841 2.52355 28.5117 2.10375 28.5117C1.65455 28.5117 1.28915 28.1463 1.28915 27.6971C1.28915 27.4535 1.397 27.2245 1.58512 27.0689C1.7331 26.9464 1.81878 26.7644 1.81878 26.5722C1.81878 26.3801 1.7331 26.1981 1.58512 26.0756C1.397 25.92 1.28915 25.691 1.28915 25.4474C1.28915 24.9982 1.65455 24.6328 2.10375 24.6328C2.52355 24.6328 2.87968 24.9604 2.9144 25.3787C2.94216 25.7128 3.22145 25.9698 3.5567 25.9698H5.73289V27.1747H5.7328ZM5.95332 24.6808H4.06063C3.82362 24.082 3.31779 23.6185 2.70093 23.4328C2.67343 23.3505 2.65873 23.2636 2.65873 23.1746C2.65873 22.7254 3.02414 22.36 3.47334 22.36C3.89314 22.36 4.24927 22.6877 4.28407 23.1059C4.31183 23.44 4.59113 23.697 4.92637 23.697H7.10256V24.3624H6.64383C6.3678 24.3624 6.12055 24.4864 5.95332 24.6808ZM10.433 33.7063H7.5796C7.57848 33.6836 7.57728 33.6609 7.57728 33.6379C7.57728 32.85 8.21829 32.209 9.00625 32.209C9.79421 32.209 10.4352 32.85 10.4352 33.6379C10.4353 33.6609 10.434 33.6836 10.433 33.7063ZM30.3116 33.7063H28.0679C28.0668 33.6836 28.0656 33.6609 28.0656 33.6379C28.0656 32.85 28.7066 32.209 29.4946 32.209C29.8885 32.209 30.2459 32.3692 30.5046 32.628C30.3791 32.9405 30.3093 33.2811 30.3093 33.6379C30.3092 33.6609 30.311 33.6834 30.3116 33.7063ZM29.4946 30.9198C27.9959 30.9198 26.7765 32.1391 26.7765 33.6378C26.7765 33.6608 26.7782 33.6834 26.7788 33.7062H11.722C11.7226 33.6833 11.7244 33.6608 11.7244 33.6378C11.7244 32.3649 10.8446 31.2941 9.66135 31.0001C9.64915 30.8017 9.64227 30.6025 9.64227 30.4022C9.64227 30.3365 9.64322 30.271 9.64451 30.2055L16.2366 32.444C16.6807 32.5948 17.1349 32.6692 17.5847 32.6692C18.4345 32.6692 19.2687 32.4038 19.9891 31.8877C21.0906 31.0984 21.7223 29.8685 21.7223 28.5134C21.7223 28.0289 21.6392 27.5536 21.4753 27.1006C21.3541 26.7659 20.9846 26.5928 20.6498 26.714C20.3151 26.8351 20.142 27.2047 20.2632 27.5394C20.3761 27.8512 20.4334 28.1789 20.4334 28.5133C20.4334 29.4476 19.9978 30.2956 19.2383 30.8397C18.479 31.3839 17.5359 31.5236 16.6512 31.2233L7.02195 27.9534V25.6515H17.5715C17.8948 25.6515 18.2133 25.7056 18.5182 25.8126C18.8543 25.9305 19.222 25.7534 19.3397 25.4174C19.4575 25.0814 19.2805 24.7138 18.9446 24.5959C18.5023 24.441 18.0403 24.3624 17.5715 24.3624H11.7273C13.7835 21.6856 17.1654 19.9345 20.9831 19.9345C27.2364 19.9345 32.3238 24.6303 32.3238 30.4021C32.3238 30.6084 32.3166 30.8136 32.3036 31.0179C31.9142 31.1258 31.5596 31.3184 31.2609 31.5746C30.7855 31.1669 30.1685 30.9198 29.4946 30.9198ZM34.454 33.7063H31.6006C31.5995 33.6836 31.5983 33.6609 31.5983 33.6379C31.5983 32.85 32.2393 32.209 33.0272 32.209C33.8152 32.209 34.4563 32.85 34.4563 33.6379C34.4563 33.6609 34.4551 33.6836 34.454 33.7063ZM34.8583 31.2197C34.7555 31.2726 34.6558 31.3305 34.5611 31.3955C34.2745 31.1989 33.9482 31.0569 33.5974 30.9816C33.6073 30.7893 33.6128 30.5962 33.6128 30.4023C33.6128 30.1647 33.6029 29.9293 33.5878 29.6951H34.8583V31.2197ZM37.5226 33.6378C37.5226 33.6608 37.5214 33.6835 37.5203 33.7062H35.743C35.7436 33.6833 35.7454 33.6608 35.7454 33.6378C35.7454 33.1811 35.6316 32.7505 35.4317 32.3723C35.6296 32.268 35.8547 32.2089 36.0937 32.2089C36.8816 32.2089 37.5226 32.8499 37.5226 33.6378ZM37.5226 27.7185C37.5226 28.0976 37.2142 28.4061 36.835 28.4061H33.4281C33.33 27.8758 33.1959 27.3568 33.0241 26.8532H37.5226V27.7185ZM42.7109 25.5641H32.4932C32.2456 25.0558 31.9601 24.5669 31.6404 24.1H34.375C34.731 24.1 35.0195 23.8114 35.0195 23.4555C35.0195 23.0995 34.731 22.8109 34.375 22.8109H30.6187C30.0022 22.134 29.3059 21.5222 28.5421 20.9894C28.5747 20.9907 28.6074 20.9916 28.6401 20.9916C29.2345 20.9916 29.8024 20.7772 30.2472 20.4045C30.692 20.7772 31.26 20.9916 31.8544 20.9916C32.4487 20.9916 33.0167 20.7772 33.4615 20.4045C33.9062 20.7772 34.4743 20.9916 35.0686 20.9916C35.6629 20.9916 36.2309 20.7772 36.6757 20.4045C37.1204 20.7772 37.6885 20.9916 38.2828 20.9916C38.8772 20.9916 39.4451 20.7772 39.89 20.4045C40.105 20.5847 40.3489 20.7275 40.6106 20.8273L39.6508 22.8109H37.3828C37.0268 22.8109 36.7383 23.0995 36.7383 23.4555C36.7383 23.8114 37.0268 24.1 37.3828 24.1H42.7109V25.5641Z"/>
    </g>
    <defs>
    <clipPath id="clip0">
    <rect width="44" height="44" fill="white"/>
    </clipPath>
    </defs>
  </symbol>
  <symbol id="dish" viewBox="0 0 44 45">
    <g clip-path="url(#clip0)">
    <path d="M31.158 15.5309L30.6872 13.9994C30.0892 12.2596 28.1775 11.3285 26.4173 11.9196C25.4271 12.2521 24.6495 13.0207 24.3131 13.9994L23.8423 15.5309C23.4461 16.8225 23.3629 18.1882 23.5995 19.5174C23.8153 20.6366 24.5342 21.598 25.5531 22.1304L25.0259 33.7805C24.9553 34.4308 25.1687 35.0799 25.6125 35.565C26.5671 36.597 28.1874 36.6687 29.2314 35.7253C29.2879 35.6743 29.342 35.6208 29.3936 35.565C29.8275 35.0937 30.0406 34.4636 29.9803 33.8291L29.4501 22.129C30.4677 21.5963 31.1853 20.6355 31.4007 19.5174C31.6373 18.1882 31.5542 16.8225 31.158 15.5309ZM29.9561 19.2652C29.7973 20.0692 29.2176 20.7289 28.4344 20.9968C28.1371 21.1072 27.9456 21.3943 27.9599 21.7078L28.5173 33.9436C28.5429 34.1836 28.4628 34.4229 28.2973 34.6003C27.8557 35.0324 27.1446 35.0324 26.703 34.6003C26.5292 34.4086 26.4503 34.1505 26.4874 33.8957L27.0403 21.7078C27.0546 21.3943 26.8631 21.1072 26.5659 20.9968C25.7827 20.7289 25.203 20.0692 25.0442 19.2652C24.848 18.1617 24.9172 17.0279 25.2459 15.9557L25.7167 14.4234C26.081 13.4498 27.1747 12.9525 28.1598 13.3126C28.6805 13.5029 29.091 13.9088 29.2836 14.4234L29.7544 15.9557C30.0827 17.028 30.1519 18.1617 29.9561 19.2652Z"/>
    <path d="M19.8 11.7459C19.395 11.7459 19.0667 12.0704 19.0667 12.4707V18.694L17.0815 20.6561C16.9347 20.8007 16.8566 21.0001 16.8667 21.2048L17.5083 33.8892C17.5236 34.1628 17.4232 34.4303 17.2311 34.6278C16.8297 35.0281 16.176 35.031 15.7709 34.6342C15.7687 34.6321 15.7666 34.6299 15.7645 34.6278C15.5723 34.4303 15.472 34.1628 15.4873 33.8892L16.1333 21.2048C16.1436 21.0002 16.0658 20.8009 15.9192 20.6561L13.9333 18.694V12.4707C13.9333 12.0704 13.605 11.7459 13.2 11.7459C12.795 11.7459 12.4667 12.0704 12.4667 12.4707V18.9941C12.4667 19.1864 12.544 19.3707 12.6815 19.5066L14.6513 21.4542L14.0257 33.8189C13.9592 35.1695 15.013 36.3178 16.3795 36.3836C17.7459 36.4494 18.9077 35.4078 18.9743 34.0572C18.9782 33.9778 18.9782 33.8984 18.9743 33.819L18.3487 21.4543L20.3185 19.5067C20.456 19.3707 20.5333 19.1865 20.5333 18.9942V12.4708C20.5333 12.0704 20.205 11.7459 19.8 11.7459Z"/>
    <path d="M15.4 11.7459C14.995 11.7459 14.6666 12.0704 14.6666 12.4707V18.2693C14.6666 18.6696 14.995 18.9941 15.4 18.9941C15.8049 18.9941 16.1333 18.6696 16.1333 18.2693V12.4707C16.1333 12.0704 15.8049 11.7459 15.4 11.7459Z" />
    <path d="M17.6 11.7459C17.195 11.7459 16.8667 12.0704 16.8667 12.4707V18.2693C16.8667 18.6696 17.195 18.9941 17.6 18.9941C18.005 18.9941 18.3334 18.6696 18.3334 18.2693V12.4707C18.3334 12.0704 18.005 11.7459 17.6 11.7459Z" />
    <path d="M22 0.873535C9.84977 0.873535 0 10.609 0 22.6182C0 34.6275 9.84977 44.3629 22 44.3629C34.1502 44.3629 44 34.6275 44 22.6182C43.9863 10.6146 34.1446 0.887126 22 0.873535ZM22 42.9133C10.6597 42.9133 1.46667 33.8269 1.46667 22.6182C1.46667 11.4096 10.6597 2.32318 22 2.32318C33.3403 2.32318 42.5333 11.4096 42.5333 22.6182C42.5204 33.8215 33.3349 42.9005 22 42.9133Z"/>
    <path d="M24.3804 36.2246C24.3411 35.826 23.9824 35.5344 23.5793 35.5733C23.5698 35.5742 23.5604 35.5753 23.551 35.5765L23.5539 35.5758C22.5214 35.6944 21.4785 35.6944 20.446 35.5758C20.0436 35.5291 19.6792 35.8138 19.632 36.2118C19.5848 36.6097 19.8727 36.9701 20.2752 37.0168C21.4202 37.149 22.5768 37.149 23.7218 37.0168C24.1249 36.978 24.4198 36.6233 24.3804 36.2246Z"/>
    <path d="M33.2202 13.2781C32.9599 12.9714 32.4974 12.9313 32.1871 13.1886C32.1861 13.1894 32.1851 13.1903 32.184 13.1912C31.8744 13.4492 31.835 13.9064 32.096 14.2124C36.5175 19.4004 36.1793 27.0716 31.3179 31.8597C31.031 32.1423 31.0302 32.6014 31.3161 32.885C31.602 33.1686 32.0665 33.1694 32.3534 32.8868C37.756 27.5672 38.1327 19.0431 33.2202 13.2781Z"/>
    <path d="M17.0858 10.4551C17.0854 10.4551 17.0849 10.4541 17.0844 10.4541C17.0837 10.4541 17.083 10.4551 17.0822 10.4551H17.0858Z"/>
    <path d="M25.4592 8.52692C22.5932 7.84803 19.5874 8.03051 16.8271 9.05097C16.4479 9.19185 16.2563 9.6099 16.3988 9.98454C16.5062 10.2669 16.7794 10.4539 17.0846 10.4541C17.1723 10.4537 17.2592 10.4378 17.3411 10.4071C19.827 9.48831 22.5337 9.32423 25.1145 9.93598C25.5082 10.03 25.9045 9.79092 25.9996 9.40178C26.0948 9.01264 25.8529 8.62097 25.4592 8.52692Z"/>
    <path d="M12.6492 31.8235C10.1771 29.3842 8.79154 26.0709 8.79997 22.6182C8.79273 19.8597 9.67677 17.171 11.3234 14.9438C11.5667 14.6238 11.5016 14.1694 11.1778 13.9289C10.854 13.6883 10.3943 13.7527 10.151 14.0727C10.1466 14.0784 10.1424 14.0842 10.1383 14.09C5.89845 19.8512 6.52233 27.8035 11.6101 32.8498C11.8968 33.1334 12.362 33.1336 12.6489 32.8502C12.9358 32.5668 12.936 32.1071 12.6492 31.8235Z"/>
    </g>
    <defs>
    <clipPath id="clip0">
    <rect width="44" height="43.4894" fill="white" transform="translate(0 0.873535)"/>
    </clipPath>
    </defs>
  </symbol>
  <symbol id="star" viewBox="0 0 20 16">
    <path d="M11.1651 0.722315L13.2524 4.40759C13.4062 4.67459 13.6997 4.86001 14.0382 4.90122L18.7267 5.50114C19.0005 5.53493 19.249 5.66184 19.4169 5.8555C19.5828 6.04668 19.6541 6.28896 19.6138 6.52712C19.581 6.7249 19.475 6.90785 19.3128 7.04794L15.9155 9.94128C15.667 10.1432 15.5545 10.4423 15.6145 10.7349L16.4509 14.8025C16.54 15.2937 16.1696 15.7568 15.6145 15.8499C15.3857 15.8821 15.1513 15.8483 14.945 15.756L10.7628 13.8416C10.4524 13.704 10.0858 13.704 9.77541 13.8416L5.59326 15.756C5.0794 15.9958 4.4427 15.8326 4.1567 15.3876C4.05074 15.2104 4.01324 15.0085 4.04793 14.8116L4.88436 10.7431C4.94437 10.4514 4.83091 10.1506 4.58336 9.94869L1.18607 7.057C0.781918 6.71419 0.769728 6.14969 1.15887 5.79452C1.16731 5.7871 1.17669 5.77886 1.18607 5.77062C1.34735 5.6264 1.55927 5.53493 1.78807 5.51103L6.47658 4.91028C6.81415 4.86825 7.10765 4.68448 7.26237 4.41583L9.27468 0.722315C9.45378 0.405869 9.82511 0.208914 10.2283 0.217155H10.354C10.7037 0.254239 11.0085 0.444601 11.1651 0.722315Z" fill="#FAC412"/>
    <path d="M10.2423 13.739C10.0607 13.744 9.8838 13.7868 9.72468 13.8635L5.56298 15.7735C5.05376 15.987 4.44439 15.8213 4.1589 15.3935C4.05312 15.2187 4.01474 15.0184 4.05031 14.8222L4.88153 10.7623C4.93769 10.4672 4.82537 10.1672 4.58106 9.95944L1.18224 7.0685C0.778803 6.72145 0.771315 6.15183 1.16633 5.79655C1.17195 5.7916 1.17663 5.78748 1.18224 5.78336C1.34324 5.64322 1.55105 5.55089 1.77477 5.52204L6.46721 4.91533C6.80699 4.87741 7.10185 4.69111 7.25162 4.42073L9.29128 0.680724C9.48505 0.379017 9.85666 0.199312 10.2498 0.218272C10.2423 0.463099 10.2423 13.5725 10.2423 13.739Z" fill="#FAC412"/>
  </symbol>
  <symbol id="vector" viewBox="0 0 11 16">
    <path d="M7.81716 15.519L1.23311 8.93493C0.722183 8.42134 0.722182 7.5918 1.23311 7.07821L7.81716 0.494161C8.30963 0.0714853 9.03784 0.0714852 9.53031 0.494161C10.0821 0.966907 10.1466 1.79911 9.67381 2.35088L4.02476 8L9.67388 13.6623C10.1848 14.1758 10.1848 15.0054 9.67388 15.519C9.16029 16.0299 8.33068 16.0299 7.81716 15.519Z"/>
  </symbol>
  <symbol id="timer" viewBox="0 0 41 34" fill="#F99462">
    <path d="M31.7543 12.8812L32.7503 11.8853C33.0383 11.5974 33.1969 11.2146 33.1969 10.8074C33.1969 10.4003 33.0383 10.0174 32.7504 9.72958L31.6096 8.58879C31.3217 8.30092 30.9389 8.14234 30.5318 8.14234C30.1246 8.14234 29.7418 8.30092 29.454 8.58879L28.4579 9.58481C27.1434 8.67936 25.6517 8.01371 24.046 7.6516V6.17944H24.6521C25.4727 6.17944 26.1403 5.51179 26.1403 4.69121V2.6208C26.1403 1.80015 25.4727 1.13251 24.6521 1.13251H17.8004C16.9798 1.13251 16.3122 1.80015 16.3122 2.6208V4.69114C16.3122 5.51173 16.9798 6.17937 17.8004 6.17937H18.4064V7.65565C16.8081 8.01876 15.3231 8.68288 14.0137 9.58475L13.0177 8.58872C12.7299 8.30085 12.347 8.14227 11.94 8.14227C11.5327 8.14227 11.15 8.30085 10.8621 8.58872L9.72132 9.72951C9.12706 10.3238 9.12706 11.2909 9.72132 11.8852L9.8979 12.0618H5.19077C4.82407 12.0618 4.52671 12.3591 4.52671 12.7258C4.52671 13.0926 4.82407 13.3899 5.19077 13.3899H10.3845C9.88966 14.1868 9.48 15.0417 9.16863 15.9423H0.664061C0.297367 15.9423 0 16.2396 0 16.6064C0 16.9732 0.297367 17.2705 0.664061 17.2705H8.78898C8.60165 18.0942 8.4942 18.9477 8.47521 19.8229H4.24999C3.8833 19.8229 3.58593 20.1202 3.58593 20.487C3.58593 20.8537 3.8833 21.151 4.24999 21.151H8.51492C8.58671 22.0299 8.74801 22.8836 8.98946 23.7035H3.32031C2.95361 23.7035 2.65624 24.0008 2.65624 24.3675C2.65624 24.7343 2.95361 25.0316 3.32031 25.0316H9.46181C11.3938 29.63 15.9436 32.8675 21.2358 32.8675C28.274 32.8675 34 27.1415 34 20.1033C34 17.4246 33.1699 14.9364 31.7543 12.8812ZM30.3931 9.5279C30.4406 9.48042 30.4947 9.47046 30.5318 9.47046C30.5689 9.47046 30.623 9.48042 30.6705 9.5279L31.8113 10.6687C31.8588 10.7162 31.8688 10.7704 31.8688 10.8074C31.8688 10.8445 31.8588 10.8987 31.8112 10.9461L30.9382 11.8192C30.5031 11.3104 30.0288 10.8361 29.52 10.401L30.3931 9.5279ZM17.6403 4.69121V2.6208C17.6403 2.53248 17.7122 2.46063 17.8004 2.46063H24.6521C24.7403 2.46063 24.8122 2.53248 24.8122 2.6208V4.69114C24.8122 4.77947 24.7403 4.85125 24.6521 4.85125H23.382H19.0704H17.8004C17.7122 4.85132 17.6403 4.77947 17.6403 4.69121ZM19.7345 6.17944H22.7179V7.42568C22.2315 7.36917 21.7372 7.33916 21.2359 7.33916C20.7279 7.33916 20.2272 7.3699 19.7346 7.42787L19.7345 6.17944ZM10.6604 10.6686L11.8012 9.52784C11.8486 9.48036 11.9028 9.4704 11.9399 9.4704C11.9769 9.4704 12.0311 9.48036 12.0786 9.52784L12.9516 10.4009C12.4428 10.836 11.9686 11.3103 11.5335 11.8191L10.6604 10.9461C10.5839 10.8696 10.5839 10.7451 10.6604 10.6686ZM21.2358 31.5393C14.93 31.5393 9.79975 26.4091 9.79975 20.1033C9.79975 13.7974 14.93 8.66721 21.2358 8.66721C27.5417 8.66721 32.6719 13.7974 32.6719 20.1033C32.6719 26.4091 27.5417 31.5393 21.2358 31.5393Z"/>
    <path d="M25.6188 14.7811L22.4797 17.9202C22.1126 17.7102 21.6881 17.5895 21.2358 17.5895C19.8497 17.5895 18.722 18.7171 18.722 20.1033C18.722 21.4894 19.8497 22.617 21.2358 22.617C22.6219 22.617 23.7495 21.4894 23.7495 20.1033C23.7495 19.6509 23.6288 19.2265 23.4188 18.8594L26.5579 15.7203C26.8172 15.461 26.8172 15.0405 26.5579 14.7811C26.2985 14.5218 25.8782 14.5218 25.6188 14.7811ZM21.2358 21.289C20.582 21.289 20.0502 20.7571 20.0502 20.1034C20.0502 19.4496 20.5821 18.9177 21.2358 18.9177C21.8895 18.9177 22.4214 19.4496 22.4214 20.1034C22.4214 20.7571 21.8896 21.289 21.2358 21.289Z"/>
    <path d="M21.2361 11.4937C21.4107 11.4937 21.5821 11.4226 21.7055 11.2991C21.829 11.1756 21.9001 11.0042 21.9001 10.8296C21.9001 10.6549 21.8291 10.4836 21.7055 10.3601C21.5821 10.2366 21.4107 10.1655 21.2361 10.1655C21.0614 10.1655 20.8901 10.2366 20.7666 10.3601C20.6431 10.4836 20.572 10.6549 20.572 10.8296C20.572 11.0049 20.643 11.1756 20.7666 11.2991C20.8902 11.4226 21.0614 11.4937 21.2361 11.4937Z"/>
    <path d="M21.2361 28.7128C21.0614 28.7128 20.8901 28.7838 20.7666 28.9073C20.6431 29.0309 20.572 29.2022 20.572 29.3768C20.572 29.5521 20.643 29.7228 20.7666 29.8463C20.8901 29.9705 21.0614 30.0409 21.2361 30.0409C21.4107 30.0409 21.5821 29.9705 21.7055 29.8463C21.829 29.7228 21.9001 29.5515 21.9001 29.3768C21.9001 29.2022 21.8291 29.0309 21.7055 28.9073C21.5821 28.7838 21.4107 28.7128 21.2361 28.7128Z"/>
    <path d="M14.6784 12.8815C14.5038 12.8815 14.3324 12.9525 14.2089 13.076C14.0854 13.1996 14.0143 13.3709 14.0143 13.5455C14.0143 13.7208 14.0853 13.8915 14.2089 14.0157C14.3324 14.1392 14.5038 14.2096 14.6784 14.2096C14.8531 14.2096 15.0244 14.1392 15.1478 14.0157C15.2713 13.8915 15.3425 13.7208 15.3425 13.5455C15.3425 13.3709 15.2714 13.2002 15.1478 13.076C15.0244 12.9525 14.8531 12.8815 14.6784 12.8815Z" />
    <path d="M27.7937 25.9967C27.6183 25.9967 27.4477 26.0678 27.3235 26.1913C27.2 26.3148 27.1296 26.4861 27.1296 26.6608C27.1296 26.8354 27.2 27.0067 27.3235 27.1303C27.4477 27.2538 27.6183 27.3248 27.7937 27.3248C27.9683 27.3248 28.1397 27.2538 28.2631 27.1303C28.3866 27.0067 28.4578 26.8354 28.4578 26.6608C28.4578 26.4861 28.3867 26.3148 28.2631 26.1913C28.1397 26.0678 27.9683 25.9967 27.7937 25.9967Z"/>
    <path d="M14.6784 25.9967C14.5038 25.9967 14.3324 26.0678 14.2089 26.1913C14.0854 26.3148 14.0143 26.4861 14.0143 26.6608C14.0143 26.8354 14.0853 27.0067 14.2089 27.1303C14.3325 27.2538 14.5038 27.3248 14.6784 27.3248C14.8531 27.3248 15.0244 27.2538 15.1478 27.1303C15.2713 27.0067 15.3425 26.8354 15.3425 26.6608C15.3425 26.4861 15.2714 26.3148 15.1478 26.1913C15.0244 26.0678 14.8531 25.9967 14.6784 25.9967Z"/>
    <path d="M11.9625 19.4391C11.7872 19.4391 11.6165 19.5101 11.493 19.6337C11.3689 19.7572 11.2984 19.9285 11.2984 20.1031C11.2984 20.2778 11.3689 20.4491 11.493 20.5726C11.6165 20.6968 11.7872 20.7672 11.9625 20.7672C12.1371 20.7672 12.3084 20.6968 12.432 20.5726C12.5554 20.4491 12.6265 20.2778 12.6265 20.1031C12.6265 19.9285 12.5555 19.7572 12.432 19.6337C12.3084 19.5101 12.1371 19.4391 11.9625 19.4391Z"/>
    <path d="M30.9791 19.6337C30.8556 19.5101 30.6842 19.4391 30.5096 19.4391C30.3343 19.4391 30.1636 19.5101 30.0402 19.6337C29.9166 19.7572 29.8455 19.9285 29.8455 20.1031C29.8455 20.2785 29.9166 20.4491 30.0402 20.5726C30.1636 20.6962 30.3349 20.7672 30.5096 20.7672C30.6842 20.7672 30.8556 20.6962 30.9791 20.5726C31.1026 20.4491 31.1736 20.2778 31.1736 20.1031C31.1736 19.9285 31.1026 19.7572 30.9791 19.6337Z"/>
    <path d="M0.664062 23.7037C0.489414 23.7037 0.318086 23.7741 0.19457 23.8976C0.0710547 24.0218 0 24.1925 0 24.3678C0 24.5424 0.0709883 24.7131 0.19457 24.8373C0.318086 24.9608 0.489414 25.0319 0.664062 25.0319C0.838711 25.0319 1.01004 24.9608 1.13349 24.8373C1.257 24.7138 1.32812 24.5424 1.32812 24.3678C1.32812 24.1925 1.25707 24.0212 1.13349 23.8976C1.01004 23.7741 0.838711 23.7037 0.664062 23.7037Z" />
    <path d="M30.3142 18.087C30.6656 17.9823 30.8657 17.6124 30.761 17.2609C30.2915 15.6857 29.425 14.236 28.2553 13.0687C27.0853 11.9013 25.6336 11.038 24.057 10.572C23.7054 10.468 23.3359 10.6689 23.232 11.0206C23.128 11.3722 23.3288 11.7417 23.6806 11.8456C26.4825 12.6737 28.6536 14.84 29.4882 17.6402C29.574 17.9284 29.8382 18.1147 30.1243 18.1147C30.187 18.1148 30.2509 18.1058 30.3142 18.087Z"/>
    <ellipse opacity="0.35" cx="27.0179" cy="13.5" rx="13.0179" ry="13.5" />
  </symbol>
  <symbol id="men" viewBox="0 0 33 34" fill="#47C2FF">
    <path d="M5.75085 25.544L6.1105 26.4002C6.36418 26.2961 6.62837 26.2192 6.89859 26.1706L6.73095 25.2585C6.39491 25.3189 6.06635 25.4146 5.75085 25.544Z" />
    <path d="M3.28833 27.8437L4.13208 28.2476C4.42409 27.6522 4.86828 27.1425 5.42073 26.7689L4.89163 26.0039C4.20428 26.4688 3.65162 27.103 3.28833 27.8437Z" />
    <path d="M29.0625 27.5828C29.063 26.785 28.7655 26.015 28.2268 25.4206L27.5283 26.0386C27.8054 26.3442 27.9952 26.7174 28.0781 27.1195H24.8437C24.7666 27.1195 24.6906 27.1384 24.6226 27.1744C24.5545 27.2103 24.4966 27.2624 24.4537 27.3258L22.7179 29.8994H21.5625V28.5095C21.5635 27.6496 21.9095 26.8253 22.5247 26.2173C23.1398 25.6093 23.9738 25.2673 24.8437 25.2663H25.7812C26.2422 25.2655 26.6931 25.3998 27.0769 25.6521L27.596 24.8805C27.1912 24.6142 26.7313 24.4408 26.25 24.3728V22.9498C26.25 22.8269 26.2006 22.709 26.1127 22.6222C26.0248 22.5353 25.9056 22.4865 25.7812 22.4865C25.2841 22.4859 24.8076 22.2905 24.456 21.943C24.1045 21.5956 23.9068 21.1246 23.9062 20.6332V18.78H25.3125C25.4368 18.78 25.556 18.7312 25.644 18.6443C25.7319 18.5574 25.7812 18.4396 25.7812 18.3167V15.0735C25.7812 14.9506 25.7319 14.8328 25.644 14.7459C25.556 14.659 25.4368 14.6102 25.3125 14.6102H24.4857C24.2899 14.6105 24.0949 14.6371 23.9062 14.6891V14.1469C23.9063 14.0417 23.8701 13.9395 23.8035 13.8573L22.2698 11.9624C22.4708 11.6274 22.543 11.2322 22.4734 10.8489C22.4038 10.4657 22.197 10.1199 21.8907 9.87495C21.5845 9.62997 21.1993 9.50209 20.8055 9.51469C20.4118 9.52729 20.0357 9.67952 19.7461 9.94357C19.4566 10.2076 19.2728 10.5658 19.2284 10.9528C19.184 11.3397 19.282 11.7295 19.5044 12.0509C19.7269 12.3723 20.0589 12.6039 20.4398 12.7033C20.8207 12.8027 21.2251 12.7633 21.5791 12.5923L22.9687 14.3094V14.894L20.908 14.2151C20.773 14.1691 20.6311 14.146 20.4883 14.1469H16.6219L14.3965 11.5807C14.5827 11.4528 14.7348 11.2824 14.8399 11.0838C14.945 10.8853 14.9999 10.6645 15 10.4404V10.2635L15.6784 9.92819C15.7378 9.89881 15.7903 9.85727 15.8322 9.80632C15.8742 9.75538 15.9047 9.6962 15.9218 9.6327C15.9388 9.56921 15.942 9.50286 15.9312 9.43805C15.9203 9.37324 15.8956 9.31146 15.8587 9.2568L15.0888 8.11532C15.1957 8.09493 15.2921 8.03839 15.3614 7.95542C15.4308 7.87244 15.4687 7.7682 15.4687 7.66059C15.4679 6.92358 15.1713 6.21701 14.644 5.69587C14.1168 5.17473 13.4019 4.88158 12.6562 4.88074C11.7735 4.88074 10.9562 5.13133 10.3482 5.79531C10.0848 6.08344 9.88532 6.42284 9.76248 6.79171C9.63965 7.16057 9.59622 7.55075 9.63498 7.93718L9.73529 8.9282C9.77749 9.35549 9.98412 9.75044 10.3125 10.0315V18.78C10.3122 19.1055 10.3993 19.4252 10.5647 19.7066H9.84375C9.68404 19.7065 9.52551 19.7335 9.375 19.7863V13.6836C9.37458 13.3151 9.22629 12.9618 8.96266 12.7012C8.69902 12.4407 8.34158 12.2941 7.96875 12.2937H2.34375C1.97092 12.2941 1.61348 12.4407 1.34984 12.7012C1.08621 12.9618 0.937919 13.3151 0.9375 13.6836V16.0001H1.875V15.0735H8.4375V19.7066H1.875V16.9268H0.9375V20.7098C0.937396 20.9269 1.01442 21.137 1.15511 21.3037C1.29581 21.4703 1.49125 21.5828 1.7073 21.6215L6.09375 22.4098V23.497C5.69633 23.588 5.30824 23.715 4.93441 23.8764H2.34375C2.21943 23.8764 2.1002 23.9252 2.01229 24.0121C1.92439 24.099 1.875 24.2168 1.875 24.3397V26.5388C1.26253 27.5553 0.938666 28.7163 0.9375 29.8994C0.9375 30.0223 0.986886 30.1401 1.07479 30.227C1.1627 30.3139 1.28193 30.3627 1.40625 30.3627H3.55494C3.83507 31.0471 4.31562 31.6332 4.93497 32.046C5.55433 32.4587 6.28428 32.6792 7.03125 32.6792C7.77822 32.6792 8.50817 32.4587 9.12753 32.046C9.74688 31.6332 10.2274 31.0471 10.5076 30.3627H18.3891C18.7156 30.3625 19.0385 30.295 19.3371 30.1645C19.6358 30.0339 19.9036 29.8433 20.1234 29.6046L20.625 29.0591V30.3627C20.625 30.4856 20.6744 30.6034 20.7623 30.6903C20.8502 30.7772 20.9694 30.826 21.0937 30.826H22.065C22.4778 31.5326 23.1149 32.0848 23.8775 32.397C24.6402 32.7092 25.4857 32.7639 26.2831 32.5528C27.0804 32.3416 27.785 31.8763 28.2875 31.229C28.7901 30.5817 29.0625 29.7887 29.0625 28.9728C29.0629 28.6179 29.0114 28.2649 28.9098 27.9245C28.9579 27.8812 28.9964 27.8285 29.0227 27.7696C29.049 27.7108 29.0625 27.6472 29.0625 27.5828ZM20.1562 11.1354C20.1562 10.9979 20.1975 10.8636 20.2747 10.7493C20.352 10.635 20.4618 10.5459 20.5903 10.4933C20.7188 10.4407 20.8602 10.427 20.9965 10.4538C21.1329 10.4806 21.2582 10.5468 21.3566 10.644C21.4549 10.7412 21.5219 10.865 21.549 10.9998C21.5761 11.1346 21.5622 11.2744 21.509 11.4014C21.4558 11.5283 21.3656 11.6369 21.25 11.7132C21.1344 11.7896 20.9984 11.8304 20.8594 11.8304C20.673 11.8302 20.4942 11.7569 20.3624 11.6266C20.2306 11.4963 20.1565 11.3197 20.1562 11.1354ZM13.4502 27.5828C12.9911 27.5823 12.551 27.4018 12.2264 27.081C11.9018 26.7602 11.7193 26.3252 11.7187 25.8714C11.7187 25.4166 11.8351 24.9912 12.1418 24.6412C12.4151 24.3301 12.7925 24.1266 13.2051 24.0678C13.7031 23.9976 14.1589 23.7521 14.4886 23.3765C14.8183 23.0009 14.9999 22.5204 15 22.0231C15.0001 21.9623 14.988 21.902 14.9644 21.8457C14.9408 21.7895 14.9062 21.7384 14.8626 21.6954C14.9423 21.5308 14.9883 21.3522 14.998 21.1699C15.0078 20.9876 14.9811 20.8053 14.9194 20.6332H16.1925L14.1355 25.9192C14.0858 26.0465 14.061 26.182 14.0625 26.3184V27.5828H13.4502ZM15 26.6562H17.3437C17.4443 26.6563 17.5421 26.6884 17.6228 26.7476C17.7035 26.8068 17.7628 26.8902 17.792 26.9853C17.8211 27.0804 17.8185 27.1822 17.7846 27.2757C17.7507 27.3693 17.6873 27.4496 17.6037 27.5048C17.4859 27.5558 17.3587 27.5824 17.2301 27.5828H15V26.6562ZM18.6376 26.5752C18.5444 26.3596 18.3976 26.1707 18.211 26.0261C18.0243 25.8814 17.8037 25.7856 17.5697 25.7476L19.511 21.1282C19.6835 20.7177 19.7508 20.2714 19.707 19.8289C19.6633 19.3865 19.5097 18.9616 19.26 18.5919C19.0103 18.2221 18.6722 17.919 18.2755 17.7094C17.8789 17.4997 17.4361 17.39 16.9863 17.3901H15V16.6554L15.1373 16.7911C15.1808 16.8341 15.2325 16.8682 15.2894 16.8915C15.3462 16.9148 15.4072 16.9268 15.4687 16.9268H20.2369C20.1618 17.1364 20.1387 17.3608 20.1695 17.581C20.2004 17.8013 20.2843 18.0111 20.4142 18.1927C20.5441 18.3742 20.7161 18.5224 20.916 18.6246C21.1158 18.7268 21.3375 18.7801 21.5625 18.78H21.5638C21.2582 19.1804 21.0932 19.6684 21.0937 20.1699V23.764C21.093 24.0096 20.9944 24.2451 20.8191 24.4192L18.6376 26.5752ZM21.5625 17.8534C21.4698 17.8534 21.3792 17.8262 21.3021 17.7753C21.225 17.7244 21.1649 17.652 21.1294 17.5674C21.094 17.4827 21.0847 17.3895 21.1028 17.2997C21.1208 17.2098 21.1655 17.1272 21.231 17.0625C21.2966 16.9977 21.3801 16.9535 21.4711 16.9357C21.562 16.9178 21.6562 16.927 21.7419 16.962C21.8275 16.9971 21.9007 17.0565 21.9522 17.1327C22.0038 17.2089 22.0312 17.2984 22.0312 17.3901C22.0311 17.5129 21.9817 17.6307 21.8938 17.7175C21.8059 17.8044 21.6868 17.8532 21.5625 17.8534ZM24.8437 15.5368V17.8534H23.9062V15.6811C24.0845 15.5867 24.2835 15.5372 24.4857 15.5368H24.8437ZM22.9687 17.3901C22.9688 17.1677 22.9149 16.9485 22.8115 16.751C22.7081 16.5535 22.5582 16.3834 22.3745 16.2551C22.1908 16.1267 21.9786 16.0438 21.7557 16.0133C21.5329 15.9828 21.3058 16.0056 21.0937 16.0798V15.2531L22.9687 15.8708V17.3901ZM16.4062 15.0735H20.1562V16.0001H15.6629L12.9877 13.356L12.3248 14.0112L14.0625 15.7287V17.3901H11.25V11.8304H13.3781L16.0504 14.9118C16.0944 14.9625 16.149 15.0032 16.2104 15.0312C16.2718 15.0591 16.3386 15.0735 16.4062 15.0735ZM11.0433 6.41707C11.4718 5.94907 12.0405 5.80735 12.6562 5.80735C13.0718 5.80788 13.4755 5.9446 13.804 6.19611C14.1326 6.44762 14.3675 6.79972 14.472 7.19728H12.6562C12.5319 7.19728 12.4127 7.24609 12.3248 7.33298C12.2369 7.41987 12.1875 7.53771 12.1875 7.66059V8.76094C12.1868 8.95363 12.1114 9.13871 11.9768 9.27809C11.8422 9.41747 11.6586 9.50054 11.4639 9.51019C11.2692 9.51983 11.0782 9.45533 10.9302 9.32996C10.7821 9.20458 10.6884 9.02788 10.6682 8.83623L10.5679 7.84522C10.5404 7.58747 10.5686 7.32689 10.6505 7.08071C10.7325 6.83452 10.8664 6.60832 11.0433 6.41707ZM11.4258 10.4404C11.8763 10.44 12.3082 10.2629 12.6268 9.94802C12.9454 9.63315 13.1245 9.20623 13.125 8.76094V8.1239H14.0625C14.0625 8.21538 14.0899 8.30482 14.1412 8.38092L14.7842 9.33429L14.3213 9.56293C14.2435 9.60144 14.1781 9.66057 14.1324 9.73373C14.0867 9.80688 14.0625 9.89115 14.0625 9.97713V10.4404C14.0624 10.5633 14.0129 10.681 13.9251 10.7679C13.8372 10.8548 13.718 10.9036 13.5937 10.9037H11.25V10.4313C11.3084 10.4373 11.3671 10.4404 11.4258 10.4404ZM11.25 18.78V18.3167H16.9863C17.2819 18.3167 17.5728 18.3888 17.8334 18.5265C18.094 18.6643 18.3162 18.8635 18.4803 19.1064C18.6443 19.3494 18.7452 19.6286 18.7739 19.9193C18.8027 20.21 18.7584 20.5033 18.6451 20.773L16.5621 25.7296H15.2137L17.3125 20.3362C17.3398 20.2661 17.3494 20.1904 17.3405 20.1157C17.3316 20.041 17.3045 19.9696 17.2614 19.9076C17.2183 19.8456 17.1607 19.7949 17.0933 19.7599C17.026 19.7249 16.9511 19.7066 16.875 19.7066H12.1875C11.9389 19.7063 11.7007 19.6086 11.5249 19.4349C11.3492 19.2612 11.2503 19.0257 11.25 18.78ZM9.84375 20.6332H13.5937C13.7181 20.6332 13.8373 20.682 13.9252 20.7689C14.0131 20.8558 14.0625 20.9737 14.0625 21.0965C14.0625 21.2194 14.0131 21.3373 13.9252 21.4241C13.8373 21.511 13.7181 21.5598 13.5937 21.5598H9.84375C9.71943 21.5598 9.6002 21.511 9.51229 21.4241C9.42439 21.3373 9.375 21.2194 9.375 21.0965C9.375 20.9737 9.42439 20.8558 9.51229 20.7689C9.6002 20.682 9.71943 20.6332 9.84375 20.6332ZM1.875 14.1469V13.6836C1.87514 13.5608 1.92457 13.443 2.01245 13.3561C2.10033 13.2693 2.21947 13.2204 2.34375 13.2203H7.96875C8.09303 13.2204 8.21217 13.2693 8.30005 13.3561C8.38793 13.443 8.43736 13.5608 8.4375 13.6836V14.1469H1.875ZM1.875 20.6332H8.4375V21.5598H6.60475L1.875 20.7098V20.6332ZM3.39199 24.803C3.18852 24.9663 2.99502 25.1413 2.8125 25.3272V24.803H3.39199ZM7.03125 31.7526C6.53808 31.7504 6.05404 31.6211 5.62697 31.3773C5.1999 31.1335 4.8446 30.7838 4.59621 30.3627H5.79223C6.13429 30.6612 6.57491 30.826 7.03125 30.826C7.48759 30.826 7.92821 30.6612 8.27027 30.3627H9.46629C9.2179 30.7838 8.8626 31.1335 8.43553 31.3773C8.00846 31.6211 7.52441 31.7504 7.03125 31.7526ZM19.4297 28.9815C19.2978 29.1246 19.1371 29.239 18.9579 29.3173C18.7787 29.3955 18.585 29.436 18.3891 29.4361H1.89439C1.9952 28.2265 2.48787 27.0813 3.29929 26.1704C4.11071 25.2594 5.19764 24.6314 6.39879 24.3793C6.51996 24.3533 6.64358 24.34 6.76758 24.3397H9.84375V23.4131H7.03125V22.4865H13.9629C13.8835 22.6626 13.7601 22.816 13.6043 22.9322C13.4485 23.0484 13.2655 23.1236 13.0723 23.1508C12.4364 23.2412 11.8547 23.5548 11.4334 24.0341C10.9798 24.5504 10.7812 25.1962 10.7812 25.8715C10.7808 26.4993 11.008 27.1064 11.4216 27.5828H7.5V28.5095H17.2301C17.7266 28.5058 18.2022 28.3111 18.5559 27.9666L21.482 25.0744C21.8325 24.7261 22.0298 24.2552 22.0312 23.764V20.1699C22.0316 19.8826 22.1219 19.6023 22.2897 19.3677C22.4576 19.1331 22.6948 18.9555 22.9687 18.8594V20.6332C22.9696 21.29 23.2053 21.9253 23.6342 22.4269C24.063 22.9285 24.6575 23.2641 25.3125 23.3744V24.3397C25.0215 24.3397 24.7237 24.3223 24.4344 24.3597C23.5575 24.4456 22.7297 24.8003 22.0667 25.374C21.4037 25.9478 20.9387 26.7119 20.7367 27.5597L19.4297 28.9815ZM25.0946 28.0462H25.1184L25.6842 28.6054C25.7825 28.703 25.8378 28.835 25.8381 28.9728C25.8381 29.0755 25.8073 29.176 25.7495 29.2614C25.6918 29.3468 25.6097 29.4134 25.5136 29.4527C25.4176 29.4921 25.3119 29.5023 25.21 29.4823C25.108 29.4623 25.0143 29.4128 24.9408 29.3401L24.5094 28.9138L25.0946 28.0462ZM25.3125 31.7526C24.9063 31.7514 24.5052 31.6636 24.1364 31.4954C23.7676 31.3272 23.4398 31.0825 23.1753 30.7778C23.2495 30.7421 23.3128 30.6875 23.3587 30.6197L23.7652 30.0174C23.9909 30.3446 24.3167 30.5917 24.6949 30.7224C25.0731 30.8531 25.4837 30.8606 25.8665 30.7437C26.2493 30.6269 26.5841 30.3919 26.8219 30.0731C27.0596 29.7544 27.1878 29.3688 27.1875 28.9728C27.1882 28.6982 27.1263 28.4271 27.0065 28.1794C26.9846 28.1338 26.9606 28.0896 26.9352 28.0462H27.9647C28.1144 28.4655 28.1601 28.9142 28.0981 29.3546C28.0361 29.795 27.8682 30.2143 27.6084 30.5773C27.3487 30.9404 27.0046 31.2366 26.6051 31.4411C26.2056 31.6455 25.7624 31.7524 25.3125 31.7526Z"/>
    <path d="M3.75 15.9996H2.8125V18.7795H3.75V15.9996Z" />
    <ellipse opacity="0.15" cx="20.5" cy="12.5717" rx="12.5" ry="12.5717"/>
  </symbol>
  <symbol id="restaurant" viewBox="0 0 35 37" fill="#FF7070">
    <path d="M26.6875 32.1875H23.625V23.3987C23.8956 23.343 24.1507 23.2292 24.3729 23.065C24.595 22.9008 24.7786 22.6902 24.9111 22.4478C25.0436 22.2055 25.1218 21.9371 25.1401 21.6615C25.1585 21.3859 25.1166 21.1097 25.0173 20.8519L23.625 17.231V10.3125C23.625 10.255 23.6137 10.1981 23.5917 10.1451C23.5697 10.092 23.5375 10.0437 23.4969 10.0031C23.4563 9.96248 23.408 9.93025 23.3549 9.90827C23.3019 9.88629 23.245 9.87498 23.1875 9.875H4.8125C4.75504 9.87498 4.69815 9.88629 4.64506 9.90827C4.59197 9.93025 4.54374 9.96248 4.50311 10.0031C4.46248 10.0437 4.43025 10.092 4.40827 10.1451C4.38629 10.1981 4.37498 10.255 4.375 10.3125V17.231L2.98266 20.8519C2.88344 21.1097 2.84155 21.3859 2.85989 21.6615C2.87823 21.9371 2.95636 22.2055 3.08886 22.4478C3.22136 22.6902 3.40504 22.9008 3.62715 23.065C3.84925 23.2292 4.10445 23.343 4.375 23.3987V32.1875H1.3125C1.25504 32.1875 1.19814 32.1988 1.14506 32.2208C1.09197 32.2428 1.04374 32.275 1.00311 32.3156C0.962479 32.3562 0.930253 32.4045 0.908272 32.4576C0.886291 32.5106 0.874985 32.5675 0.875 32.625V35.6875C0.874985 35.745 0.886291 35.8019 0.908272 35.8549C0.930253 35.908 0.962479 35.9563 1.00311 35.9969C1.04374 36.0375 1.09197 36.0697 1.14506 36.0917C1.19814 36.1137 1.25504 36.125 1.3125 36.125H26.6875C26.745 36.125 26.8019 36.1137 26.8549 36.0917C26.908 36.0697 26.9563 36.0375 26.9969 35.9969C27.0375 35.9563 27.0697 35.908 27.0917 35.8549C27.1137 35.8019 27.125 35.745 27.125 35.6875V32.625C27.125 32.5675 27.1137 32.5106 27.0917 32.4576C27.0697 32.4045 27.0375 32.3562 26.9969 32.3156C26.9563 32.275 26.908 32.2428 26.8549 32.2208C26.8019 32.1988 26.745 32.1875 26.6875 32.1875ZM21.875 32.1875V22.8562C22.1144 23.1043 22.4169 23.2826 22.75 23.3719V32.1875H21.875ZM18.375 32.625V35.25H16.625V32.1875H17.5C17.616 32.1875 17.7273 32.1414 17.8094 32.0594C17.8914 31.9773 17.9375 31.866 17.9375 31.75V30.4375C17.9375 30.3215 17.8914 30.2102 17.8094 30.1281C17.7273 30.0461 17.616 30 17.5 30H14.875C14.759 30 14.6477 30.0461 14.5656 30.1281C14.4836 30.2102 14.4375 30.3215 14.4375 30.4375V31.75C14.4375 31.866 14.4836 31.9773 14.5656 32.0594C14.6477 32.1414 14.759 32.1875 14.875 32.1875H15.75V35.25H14V32.625C14 32.5675 13.9887 32.5106 13.9667 32.4576C13.9447 32.4045 13.9125 32.3562 13.8719 32.3156C13.8313 32.275 13.783 32.2428 13.7299 32.2208C13.6769 32.1988 13.62 32.1875 13.5625 32.1875H12.6875V30.875C12.6875 30.8175 12.6762 30.7606 12.6542 30.7076C12.6322 30.6545 12.6 30.6062 12.5594 30.5656C12.5188 30.525 12.4705 30.4928 12.4174 30.4708C12.3644 30.4488 12.3075 30.4375 12.25 30.4375H11.375V23.3976C11.7991 23.3098 12.1805 23.0798 12.4562 22.7457C12.483 22.7791 12.5114 22.8113 12.5415 22.843C12.7186 23.0317 12.9326 23.1818 13.1703 23.2841C13.408 23.3863 13.6642 23.4386 13.9229 23.4375H14.0771C14.3358 23.4386 14.592 23.3863 14.8297 23.2841C15.0674 23.1818 15.2814 23.0317 15.4585 22.843C15.4886 22.8113 15.517 22.7791 15.5438 22.7457C15.607 22.8218 15.6759 22.893 15.75 22.9586V24.3125C15.17 24.3131 14.614 24.5437 14.2038 24.9538C13.7937 25.364 13.5631 25.92 13.5625 26.5C13.5625 26.5575 13.5738 26.6144 13.5958 26.6674C13.6178 26.7205 13.65 26.7688 13.6906 26.8094C13.7312 26.85 13.7795 26.8822 13.8326 26.9042C13.8856 26.9262 13.9425 26.9375 14 26.9375H18.375C18.4325 26.9375 18.4894 26.9262 18.5424 26.9042C18.5955 26.8822 18.6438 26.85 18.6844 26.8094C18.725 26.7688 18.7572 26.7205 18.7792 26.6674C18.8012 26.6144 18.8125 26.5575 18.8125 26.5C18.8119 25.92 18.5813 25.364 18.1712 24.9538C17.761 24.5437 17.205 24.3131 16.625 24.3125V23.3976C16.7522 23.4242 16.8817 23.4376 17.0116 23.4375H17.1484C17.4245 23.4377 17.6973 23.3777 17.9479 23.2618C18.1984 23.1458 18.4207 22.9766 18.5992 22.7659C18.6107 22.7528 18.6216 22.7391 18.632 22.7255C18.8102 22.9484 19.0364 23.1282 19.2938 23.2515C19.5512 23.3748 19.8331 23.4384 20.1184 23.4375H20.2032C20.4782 23.438 20.75 23.379 21 23.2647V30.4375H20.125C20.0675 30.4375 20.0106 30.4488 19.9576 30.4708C19.9045 30.4928 19.8562 30.525 19.8156 30.5656C19.775 30.6062 19.7428 30.6545 19.7208 30.7076C19.6988 30.7606 19.6875 30.8175 19.6875 30.875V32.1875H18.8125C18.755 32.1875 18.6981 32.1988 18.6451 32.2208C18.592 32.2428 18.5437 32.275 18.5031 32.3156C18.4625 32.3562 18.4303 32.4045 18.4083 32.4576C18.3863 32.5106 18.375 32.5675 18.375 32.625ZM15.3125 31.3125V30.875H17.0625V31.3125H15.3125ZM6.80531 21.2648L7.77109 17.75H9.5468L8.89546 21.7023C8.85648 21.9428 8.73296 22.1616 8.54712 22.3193C8.36127 22.477 8.12528 22.5632 7.88156 22.5625H7.7968C7.63883 22.5624 7.48301 22.526 7.34142 22.4559C7.19983 22.3859 7.07629 22.2842 6.98038 22.1586C6.88448 22.0331 6.8188 21.8872 6.78844 21.7321C6.75807 21.5771 6.76385 21.4172 6.80531 21.2648ZM7 23.2647C7.25004 23.379 7.52185 23.438 7.7968 23.4375H7.88156C8.16694 23.4384 8.44883 23.3748 8.70621 23.2515C8.96358 23.1282 9.18979 22.9484 9.36797 22.7255C9.37836 22.7391 9.38929 22.7528 9.40078 22.7659C9.6829 23.0988 10.0711 23.3244 10.5 23.4047V25.625H7V23.2647ZM10.8516 22.5625C10.7025 22.5626 10.5552 22.5302 10.4198 22.4675C10.2845 22.4049 10.1644 22.3136 10.0679 22.1999C9.97144 22.0862 9.90087 21.9528 9.86112 21.8091C9.82137 21.6654 9.81339 21.5147 9.83773 21.3676L10.4338 17.75H12.2254L12.0143 21.5913C11.9999 21.8536 11.8855 22.1005 11.6947 22.2811C11.5039 22.4618 11.2511 22.5625 10.9884 22.5625H10.8516ZM14.823 22.2415C14.7274 22.3433 14.6118 22.4243 14.4834 22.4795C14.3551 22.5348 14.2168 22.563 14.0771 22.5625H13.9229C13.7835 22.5625 13.6455 22.5341 13.5174 22.479C13.3893 22.424 13.2737 22.3434 13.1777 22.2423C13.0817 22.1411 13.0073 22.0215 12.9591 21.8907C12.9108 21.7599 12.8897 21.6206 12.897 21.4813L13.1015 17.75H14.8985L15.103 21.4786V21.4813C15.111 21.6205 15.0903 21.7598 15.0421 21.8905C14.994 22.0213 14.9194 22.1408 14.823 22.2415ZM15.9857 21.5912L15.7746 17.75H17.5662L18.1623 21.3676C18.1866 21.5147 18.1786 21.6654 18.1389 21.8091C18.0991 21.9528 18.0286 22.0862 17.9321 22.1999C17.8356 22.3136 17.7155 22.4049 17.5802 22.4675C17.4448 22.5302 17.2975 22.5626 17.1484 22.5625H17.0116C16.7489 22.5625 16.4961 22.4618 16.3053 22.2811C16.1145 22.1005 16.0001 21.8536 15.9857 21.5913V21.5912ZM16.625 25.1875C16.8964 25.1878 17.161 25.2721 17.3825 25.4288C17.6041 25.5854 17.7718 25.8068 17.8626 26.0625H14.5124C14.6032 25.8068 14.7709 25.5854 14.9925 25.4288C15.214 25.2721 15.4786 25.1878 15.75 25.1875H16.625ZM21.0202 22.1578C20.9248 22.284 20.8013 22.3863 20.6595 22.4566C20.5177 22.5268 20.3614 22.5631 20.2032 22.5625H20.1184C19.8747 22.5632 19.6387 22.477 19.4529 22.3193C19.267 22.1616 19.1435 21.9428 19.1045 21.7023L18.4532 17.75H20.2289L21.1941 21.2626C21.1941 21.2631 21.1947 21.2642 21.1947 21.2648C21.2366 21.417 21.2427 21.5768 21.2125 21.7318C21.1822 21.8868 21.1164 22.0326 21.0202 22.1578ZM20.5625 31.3125H21V32.1875H20.5625V31.3125ZM24.2009 21.1658C24.2608 21.3215 24.2819 21.4894 24.2624 21.655C24.2428 21.8207 24.1833 21.9791 24.0889 22.1166C23.9944 22.2541 23.868 22.3666 23.7204 22.4442C23.5727 22.5219 23.4084 22.5625 23.2416 22.5625C23.0167 22.562 22.7981 22.4879 22.6191 22.3515C22.4402 22.2152 22.3108 22.024 22.2507 21.8073L21.1362 17.75H22.8873L24.2009 21.1658ZM5.25 10.75H22.75V16.875H5.25V10.75ZM3.91125 22.1168C3.81565 21.9798 3.75539 21.8213 3.73583 21.6554C3.71627 21.4894 3.73802 21.3213 3.79914 21.1658L5.11273 17.75H6.86383L5.7493 21.8073C5.68917 22.024 5.55977 22.2152 5.38085 22.3515C5.20193 22.4879 4.98332 22.562 4.75836 22.5625C4.59138 22.5637 4.42668 22.5237 4.27889 22.4459C4.13111 22.3682 4.00482 22.2551 3.91125 22.1168ZM5.25 23.3719C5.58308 23.2826 5.88558 23.1043 6.125 22.8562V32.1875H5.25V23.3719ZM8.75 35.25H1.75V33.0625H8.75V35.25ZM9.1875 32.1875H7V26.5H10.5V35.25H9.625V32.625C9.62502 32.5675 9.61371 32.5106 9.59173 32.4576C9.56975 32.4045 9.53752 32.3562 9.49689 32.3156C9.45626 32.275 9.40803 32.2428 9.35494 32.2208C9.30186 32.1988 9.24496 32.1875 9.1875 32.1875ZM11.375 31.3125H11.8125V32.625C11.8125 32.6825 11.8238 32.7394 11.8458 32.7924C11.8678 32.8455 11.9 32.8938 11.9406 32.9344C11.9812 32.975 12.0295 33.0072 12.0826 33.0292C12.1356 33.0512 12.1925 33.0625 12.25 33.0625H13.125V35.25H11.375V31.3125ZM26.25 35.25H19.25V33.0625H26.25V35.25Z" />
    <path d="M17.0625 14.25H16.5878C16.4961 13.7131 16.24 13.2178 15.8548 12.8327C15.4697 12.4475 14.9744 12.1914 14.4375 12.0997V11.625C14.4375 11.509 14.3914 11.3977 14.3094 11.3156C14.2273 11.2336 14.116 11.1875 14 11.1875C13.884 11.1875 13.7727 11.2336 13.6906 11.3156C13.6086 11.3977 13.5625 11.509 13.5625 11.625V12.0997C13.0256 12.1914 12.5303 12.4475 12.1452 12.8327C11.76 13.2178 11.5039 13.7131 11.4122 14.25H10.9375C10.8215 14.25 10.7102 14.2961 10.6281 14.3781C10.5461 14.4602 10.5 14.5715 10.5 14.6875C10.5005 15.1515 10.6851 15.5963 11.0131 15.9244C11.3412 16.2524 11.786 16.437 12.25 16.4375H15.75C16.214 16.437 16.6588 16.2524 16.9869 15.9244C17.3149 15.5963 17.4995 15.1515 17.5 14.6875C17.5 14.5715 17.4539 14.4602 17.3719 14.3781C17.2898 14.2961 17.1785 14.25 17.0625 14.25ZM14 12.9375C14.3879 12.938 14.7646 13.0671 15.0713 13.3046C15.3779 13.5421 15.5971 13.8746 15.6946 14.25H12.3054C12.4029 13.8746 12.6221 13.5421 12.9287 13.3046C13.2354 13.0671 13.6121 12.938 14 12.9375ZM15.75 15.5625H12.25C12.0965 15.5624 11.9456 15.522 11.8127 15.4452C11.6797 15.3684 11.5693 15.258 11.4924 15.125H16.5076C16.4307 15.258 16.3203 15.3684 16.1873 15.4452C16.0544 15.522 15.9035 15.5624 15.75 15.5625Z" />
    <path d="M10.7427 13.3015C10.8026 13.2616 10.8517 13.2074 10.8857 13.1439C10.9197 13.0804 10.9375 13.0095 10.9375 12.9375V11.625H10.0625V12.6877C9.92368 12.7585 9.77677 12.8122 9.625 12.8477V11.625H8.75V12.8477C8.59823 12.8122 8.45132 12.7585 8.3125 12.6877V11.625H7.4375V12.9375C7.4375 13.0095 7.45528 13.0804 7.48927 13.1439C7.52325 13.2074 7.57239 13.2616 7.63232 13.3015C7.96895 13.5263 8.35024 13.6755 8.75 13.739V16.4375H9.625V13.739C10.0248 13.6755 10.4061 13.5263 10.7427 13.3015Z"/>
    <path d="M18.8124 11.1875C18.3864 11.1875 17.9751 11.3429 17.6555 11.6245C17.3359 11.9061 17.13 12.2945 17.0763 12.7171C17.0227 13.1397 17.1249 13.5673 17.364 13.9198C17.603 14.2724 17.9625 14.5256 18.3749 14.6321V16.4375H19.2499V14.6321C19.6623 14.5256 20.0217 14.2724 20.2608 13.9198C20.4998 13.5673 20.6021 13.1397 20.5484 12.7171C20.4948 12.2945 20.2888 11.9061 19.9692 11.6245C19.6497 11.3429 19.2383 11.1875 18.8124 11.1875ZM18.8124 13.8125C18.6393 13.8125 18.4702 13.7612 18.3263 13.665C18.1824 13.5689 18.0702 13.4322 18.004 13.2723C17.9378 13.1125 17.9204 12.9365 17.9542 12.7668C17.988 12.5971 18.0713 12.4412 18.1937 12.3188C18.316 12.1964 18.4719 12.1131 18.6417 12.0793C18.8114 12.0456 18.9873 12.0629 19.1472 12.1291C19.3071 12.1953 19.4438 12.3075 19.5399 12.4514C19.6361 12.5953 19.6874 12.7644 19.6874 12.9375C19.6871 13.1695 19.5948 13.3919 19.4308 13.5559C19.2668 13.72 19.0444 13.8122 18.8124 13.8125Z" />
    <ellipse opacity="0.15" cx="22.0968" cy="12.5" rx="12.0968" ry="12.5"/>
  </symbol>
  <symbol id="half-star" viewBox="0 0 20 16">
    <path d="M10.6651 0.722315L12.7524 4.40759C12.9062 4.67459 13.1997 4.86001 13.5382 4.90122L18.2267 5.50114C18.5005 5.53493 18.749 5.66184 18.9169 5.8555C19.0828 6.04668 19.1541 6.28896 19.1138 6.52712C19.081 6.7249 18.975 6.90785 18.8128 7.04794L15.4155 9.94128C15.167 10.1432 15.0545 10.4423 15.1145 10.7349L15.9509 14.8025C16.04 15.2937 15.6696 15.7568 15.1145 15.8499C14.8857 15.8821 14.6513 15.8483 14.445 15.756L10.2628 13.8416C9.95245 13.704 9.5858 13.704 9.27543 13.8416L5.09328 15.756C4.57942 15.9958 3.94272 15.8326 3.65672 15.3876C3.55076 15.2104 3.51325 15.0085 3.54795 14.8116L4.38438 10.7431C4.44439 10.4514 4.33093 10.1506 4.08337 9.94869L0.686083 7.057C0.281933 6.71419 0.269743 6.14969 0.658889 5.79452C0.667329 5.7871 0.676706 5.77886 0.686083 5.77062C0.847367 5.6264 1.05929 5.53493 1.28809 5.51103L5.97659 4.91028C6.31417 4.86825 6.60767 4.68448 6.76239 4.41583L8.77469 0.722315C8.95379 0.405869 9.32512 0.208914 9.72834 0.217155H9.85399C10.2038 0.254239 10.5085 0.444601 10.6651 0.722315Z" fill="#FAC412" fill-opacity="0.4"/>
    <path d="M9.74233 13.739C9.56073 13.744 9.38382 13.7868 9.22469 13.8635L5.06299 15.7735C4.55378 15.987 3.94441 15.8213 3.65891 15.3935C3.55314 15.2187 3.51476 15.0184 3.55033 14.8222L4.38155 10.7623C4.43771 10.4672 4.32538 10.1672 4.08107 9.95944L0.682258 7.0685C0.278819 6.72145 0.27133 6.15183 0.666345 5.79655C0.671961 5.7916 0.676642 5.78748 0.682258 5.78336C0.843259 5.64322 1.05106 5.55089 1.27478 5.52204L5.96722 4.91533C6.30701 4.87741 6.60187 4.69111 6.75163 4.42073L8.7913 0.680724C8.98506 0.379017 9.35667 0.199312 9.74982 0.218272C9.74233 0.463099 9.74233 13.5725 9.74233 13.739Z" fill="#FAC412"/>
  </symbol>
  <symbol id="time" viewBox="0 0 20 22">
    <path d="M10.5748 2.54016V1.58133C10.5748 1.41925 10.5104 1.26381 10.3958 1.14921C10.2812 1.0346 10.1257 0.970215 9.96367 0.970215C9.80159 0.970215 9.64615 1.0346 9.53155 1.14921C9.41694 1.26381 9.35256 1.41925 9.35256 1.58133V2.54566C4.55045 2.87933 0.744446 6.88974 0.744446 11.7753C0.744446 16.8777 4.89664 21.0299 10 21.0299C15.1034 21.0299 19.2556 16.8777 19.2556 11.7753C19.2556 6.8653 15.4114 2.83808 10.5748 2.54016V2.54016ZM10 19.8077C5.57039 19.8077 1.96667 16.204 1.96667 11.7753C1.96667 7.34594 5.57039 3.74252 10 3.74252C14.4297 3.74252 18.0334 7.34594 18.0334 11.7753C18.0334 16.204 14.4297 19.8077 10 19.8077Z" fill="#363853"/>
    <path d="M6.86295 17.3217C4.86798 16.1902 3.62864 14.0644 3.62864 11.7749C3.62864 11.6056 3.49206 11.4694 3.32309 11.4694C3.15412 11.4694 3.01753 11.6056 3.01753 11.7749C3.01753 14.2841 4.37573 16.6134 6.56167 17.8536C6.63221 17.8936 6.71574 17.9039 6.79387 17.8823C6.872 17.8606 6.93834 17.8088 6.9783 17.7383C7.01825 17.6678 7.02854 17.5842 7.00691 17.5061C6.98528 17.428 6.93349 17.3616 6.86295 17.3217Z" fill="#363853"/>
    <path d="M8.52923 18.1599C8.41091 18.1291 8.29343 18.095 8.17693 18.0579C8.10021 18.0349 8.01754 18.043 7.94672 18.0804C7.87589 18.1177 7.82257 18.1814 7.79822 18.2577C7.77387 18.334 7.78044 18.4168 7.81653 18.4883C7.85261 18.5598 7.91531 18.6142 7.99115 18.64C8.11826 18.6809 8.24598 18.7176 8.37646 18.7509C8.4549 18.7711 8.53817 18.7594 8.60796 18.7182C8.67775 18.6771 8.72835 18.6099 8.74862 18.5315C8.75868 18.4927 8.76098 18.4523 8.75539 18.4126C8.7498 18.3729 8.73643 18.3347 8.71605 18.3002C8.69567 18.2657 8.66868 18.2355 8.63662 18.2114C8.60456 18.1874 8.56807 18.1699 8.52923 18.1599Z" fill="#363853"/>
    <path d="M17.8854 5.728C18.0002 5.84242 18.1557 5.90658 18.3177 5.90635C18.4798 5.90612 18.6351 5.84153 18.7495 5.72677C18.864 5.61202 18.9281 5.45652 18.9279 5.29447C18.9277 5.13241 18.8631 4.97709 18.7483 4.86266L17.1616 3.27989C17.1048 3.22317 17.0374 3.1782 16.9632 3.14756C16.889 3.11692 16.8095 3.10121 16.7293 3.10132C16.649 3.10143 16.5695 3.11737 16.4955 3.14822C16.4214 3.17907 16.3541 3.22423 16.2975 3.28111C16.1831 3.39591 16.119 3.5514 16.1193 3.71342C16.1195 3.87544 16.184 4.03074 16.2987 4.14522L17.8854 5.728V5.728Z" fill="#363853"/>
    <path d="M10.5746 11.6613V6.77578C10.5746 6.61371 10.5102 6.45827 10.3956 6.34366C10.281 6.22906 10.1256 6.16467 9.9635 6.16467C9.80142 6.16467 9.64598 6.22906 9.53138 6.34366C9.41677 6.45827 9.35239 6.61371 9.35239 6.77578V11.9253C9.35239 12.0937 9.44008 12.2541 9.5623 12.3693L11.3507 14.0407C11.469 14.1519 11.6196 14.2075 11.7702 14.2075C11.8521 14.2076 11.9331 14.1906 12.008 14.1576C12.0828 14.1245 12.15 14.0762 12.2051 14.0156C12.4376 13.77 12.4168 13.3834 12.1714 13.1518L10.5746 11.6613V11.6613Z" fill="#363853"/>
  </symbol>
  <symbol id="arrow" viewBox="0 0 14 13">
    <path d="M8.121 0.293031C7.93353 0.480558 7.82821 0.734866 7.82821 1.00003C7.82821 1.26519 7.93353 1.5195 8.121 1.70703L11.413 5.00003L1 5.00703C0.734784 5.00703 0.48043 5.11239 0.292893 5.29992C0.105357 5.48746 0 5.74181 0 6.00703C0 6.27225 0.105357 6.5266 0.292893 6.71414C0.48043 6.90167 0.734784 7.00703 1 7.00703L11.414 7.00003L8.121 10.293C8.02549 10.3853 7.94931 10.4956 7.8969 10.6176C7.84449 10.7396 7.8169 10.8709 7.81575 11.0036C7.8146 11.1364 7.8399 11.2681 7.89018 11.391C7.94046 11.5139 8.01471 11.6255 8.10861 11.7194C8.2025 11.8133 8.31415 11.8876 8.43705 11.9379C8.55994 11.9881 8.69162 12.0134 8.8244 12.0123C8.95718 12.0111 9.0884 11.9835 9.2104 11.9311C9.33241 11.8787 9.44275 11.8025 9.535 11.707L13.121 8.12203C13.3996 7.84345 13.6207 7.51271 13.7715 7.1487C13.9222 6.78469 13.9999 6.39454 13.9999 6.00053C13.9999 5.60652 13.9222 5.21637 13.7715 4.85236C13.6207 4.48835 13.3996 4.15761 13.121 3.87903L9.535 0.293031C9.34747 0.10556 9.09316 0.000244141 8.828 0.000244141C8.56284 0.000244141 8.30853 0.10556 8.121 0.293031Z" fill="white"/>
  </symbol>
  <symbol id="arr" fill="none" viewBox="0 0 32 32">
    <path d="M5 16H27" stroke-width="2" stroke-linecap="round" stroke-linejoin="round"/>
    <path d="M18 7L27 16L18 25" stroke-width="2" stroke-linecap="round" stroke-linejoin="round"/>
  </symbol>
  <symbol id="arr-form" viewBox="0 0 14 15">
    <path d="M8.52501 14.3001C8.27996 14.3001 8.05376 14.1616 7.94326 13.9406L6.01406 10.0822C5.90811 9.87034 5.92631 9.61684 6.06086 9.42119L9.17501 5.20009L4.95326 8.31359C4.75761 8.44879 4.50411 8.46569 4.29221 8.36039L0.434461 6.43184C0.203061 6.31549 0.0620111 6.07304 0.0763111 5.81434C0.0899611 5.55564 0.257011 5.32944 0.500111 5.24039L12.8501 0.690388C13.0874 0.603938 13.3545 0.660488 13.5346 0.840538C13.714 1.01929 13.7725 1.28709 13.6847 1.52499L9.13471 13.875C9.04501 14.1181 8.81946 14.2851 8.56076 14.2988C8.54906 14.2994 8.53671 14.3001 8.52501 14.3001Z"/>
  </symbol>
  <symbol id="map" viewBox="0 0 18 20">
    <path fill-rule="evenodd" clip-rule="evenodd" d="M11.5 8.50051C11.5 7.11924 10.3808 6 9.00051 6C7.61924 6 6.5 7.11924 6.5 8.50051C6.5 9.88076 7.61924 11 9.00051 11C10.3808 11 11.5 9.88076 11.5 8.50051Z" stroke-width="1.5" stroke-linecap="round" stroke-linejoin="round"/>
    <path fill-rule="evenodd" clip-rule="evenodd" d="M8.99951 19C7.80104 19 1.5 13.8984 1.5 8.56329C1.5 4.38664 4.8571 1 8.99951 1C13.1419 1 16.5 4.38664 16.5 8.56329C16.5 13.8984 10.198 19 8.99951 19Z" stroke-width="1.5" stroke-linecap="round" stroke-linejoin="round"/>
  </symbol>
  <symbol id="phone" viewBox="0 0 22 22">
    <path d="M13.353 1.5C17.054 1.911 19.978 4.831 20.393 8.532" stroke-width="1.5" stroke-linecap="round" stroke-linejoin="round"/>
    <path d="M13.353 5.04297C15.124 5.38697 16.508 6.77197 16.853 8.54297" stroke-width="1.5" stroke-linecap="round" stroke-linejoin="round"/>
    <path fill-rule="evenodd" clip-rule="evenodd" d="M10.0315 11.4724C14.0205 15.4604 14.9254 10.8467 17.4653 13.3848C19.9138 15.8328 21.3222 16.3232 18.2188 19.4247C17.8302 19.737 15.3613 23.4943 6.68447 14.8197C-1.99341 6.144 1.76157 3.67244 2.07394 3.28395C5.18377 0.173846 5.66682 1.58938 8.11539 4.03733C10.6541 6.5765 6.04254 7.48441 10.0315 11.4724Z" stroke-width="1.5" stroke-linecap="round" stroke-linejoin="round"/>
  </symbol>
  <symbol id="email" viewBox="0 0 24 24">
    <path id="Stroke 1" d="M17.9026 8.85107L13.4593 12.4641C12.6198 13.1301 11.4387 13.1301 10.5992 12.4641L6.11842 8.85107" stroke-width="1.5" stroke-linecap="round" stroke-linejoin="round"/>
    <path id="Stroke 3" fill-rule="evenodd" clip-rule="evenodd" d="M16.9089 21C19.9502 21.0084 22 18.5095 22 15.4384V8.57001C22 5.49883 19.9502 3 16.9089 3H7.09114C4.04979 3 2 5.49883 2 8.57001V15.4384C2 18.5095 4.04979 21.0084 7.09114 21H16.9089Z" stroke-width="1.5" stroke-linecap="round" stroke-linejoin="round"/>
  </symbol>
  <symbol id="facebook" viewBox="0 0 11 21">
    <path d="M2.91513 20.7631V11.1316H0.368347V7.66377H2.91513V4.7018C2.91513 2.37426 4.41952 0.236816 7.88597 0.236816C9.28947 0.236816 10.3273 0.371366 10.3273 0.371366L10.2455 3.60972C10.2455 3.60972 9.18711 3.59942 8.03211 3.59942C6.78206 3.59942 6.58179 4.17549 6.58179 5.13162V7.66377H10.3449L10.1812 11.1316H6.58179V20.7631H2.91513Z"/>
  </symbol>
  <symbol id="twit" viewBox="0 0 21 17">
    <path d="M20.7632 2.27041C20.0084 2.59603 19.1869 2.83037 18.3408 2.92165C19.2193 2.39976 19.8771 1.57526 20.1909 0.602846C19.3666 1.09322 18.4635 1.43708 17.5218 1.61917C17.1282 1.1984 16.6522 0.863192 16.1234 0.634439C15.5946 0.405686 15.0243 0.288288 14.4482 0.289561C12.117 0.289561 10.2423 2.17914 10.2423 4.49794C10.2423 4.82356 10.2817 5.14917 10.3459 5.46246C6.85534 5.27992 3.74223 3.61235 1.67258 1.05921C1.29546 1.70333 1.09784 2.43674 1.10028 3.18313C1.10028 4.64348 1.84279 5.93115 2.97505 6.68846C2.30779 6.66218 1.65615 6.47878 1.07314 6.15317V6.20497C1.07314 8.24995 2.51869 9.94465 4.44527 10.3344C4.08353 10.4284 3.71141 10.4764 3.33767 10.4775C3.06386 10.4775 2.80484 10.4503 2.54336 10.4133C3.07619 12.0809 4.62781 13.2921 6.47545 13.3316C5.0299 14.4638 3.21926 15.1299 1.25322 15.1299C0.900464 15.1299 0.574845 15.1175 0.236893 15.0781C2.1018 16.2745 4.31453 16.9652 6.69746 16.9652C14.4334 16.9652 18.6664 10.5564 18.6664 4.99377C18.6664 4.81122 18.6664 4.62868 18.6541 4.44613C19.4731 3.8467 20.1909 3.10419 20.7632 2.27041Z"/>
  </symbol>
  <symbol id="inst" viewBox="0 0 20 20">
    <path d="M9.98447 6.7618C8.19413 6.7618 6.73309 8.22285 6.73309 10.0132C6.73309 11.8035 8.19413 13.2646 9.98447 13.2646C11.7748 13.2646 13.2359 11.8035 13.2359 10.0132C13.2359 8.22285 11.7748 6.7618 9.98447 6.7618ZM19.7362 10.0132C19.7362 8.66677 19.7484 7.33256 19.6728 5.98859C19.5972 4.42753 19.241 3.0421 18.0995 1.90058C16.9556 0.756617 15.5726 0.40294 14.0115 0.327327C12.6651 0.251713 11.3309 0.263909 9.98691 0.263909C8.6405 0.263909 7.30628 0.251713 5.96231 0.327327C4.40126 0.40294 3.01582 0.759056 1.8743 1.90058C0.730341 3.04454 0.376665 4.42753 0.301051 5.98859C0.225438 7.335 0.237633 8.66921 0.237633 10.0132C0.237633 11.3572 0.225438 12.6938 0.301051 14.0378C0.376665 15.5988 0.732781 16.9843 1.8743 18.1258C3.01826 19.2697 4.40126 19.6234 5.96231 19.699C7.30872 19.7747 8.64294 19.7625 9.98691 19.7625C11.3333 19.7625 12.6675 19.7747 14.0115 19.699C15.5726 19.6234 16.958 19.2673 18.0995 18.1258C19.2435 16.9818 19.5972 15.5988 19.6728 14.0378C19.7508 12.6938 19.7362 11.3596 19.7362 10.0132ZM9.98447 15.0159C7.21604 15.0159 4.98178 12.7816 4.98178 10.0132C4.98178 7.24475 7.21604 5.01049 9.98447 5.01049C12.7529 5.01049 14.9872 7.24475 14.9872 10.0132C14.9872 12.7816 12.7529 15.0159 9.98447 15.0159ZM15.1921 5.97395C14.5457 5.97395 14.0237 5.45198 14.0237 4.8056C14.0237 4.15923 14.5457 3.63725 15.1921 3.63725C15.8384 3.63725 16.3604 4.15923 16.3604 4.8056C16.3606 4.95909 16.3305 5.1111 16.2719 5.25294C16.2132 5.39478 16.1272 5.52365 16.0186 5.63218C15.9101 5.74071 15.7812 5.82676 15.6394 5.88541C15.4976 5.94406 15.3455 5.97415 15.1921 5.97395Z"/>
  </symbol>
  <symbol id="pint" viewBox="0 0 17 21">
    <path d="M0.289593 7.59983C0.289593 6.71239 0.444723 5.874 0.750422 5.0915C1.04249 4.33148 1.47643 3.63392 2.02911 3.03602C2.58066 2.44596 3.21183 1.93573 3.90437 1.52007C4.61491 1.09021 5.38415 0.765916 6.18798 0.557349C7.00152 0.343726 7.83923 0.235994 8.68034 0.236821C9.97956 0.236821 11.1887 0.511722 12.3099 1.05924C13.4166 1.59678 14.3585 2.42171 15.0373 3.4478C15.7377 4.49151 16.0856 5.6721 16.0856 6.98843C16.0856 7.77777 16.008 8.55 15.8494 9.30513C15.6938 10.0598 15.4463 10.7926 15.1126 11.4872C14.7945 12.1596 14.3786 12.7812 13.8784 13.3317C13.3756 13.8735 12.7668 14.306 12.0898 14.6024C11.3548 14.9245 10.5596 15.0867 9.75713 15.078C9.19935 15.078 8.6427 14.9469 8.0929 14.6834C7.5431 14.421 7.14843 14.0606 6.91117 13.5986C6.8279 13.9191 6.71383 14.3822 6.56212 14.9879C6.41612 15.5925 6.31802 15.9826 6.27467 16.1594C6.22905 16.3351 6.14464 16.6282 6.02145 17.0343C5.9379 17.3347 5.83072 17.628 5.70092 17.9115L5.30853 18.6803C5.13883 19.0102 4.94913 19.3294 4.74048 19.6362C4.53402 19.935 4.27851 20.292 3.97395 20.7027L3.80399 20.7631L3.69106 20.6399C3.56901 19.3476 3.50627 18.5742 3.50627 18.3187C3.50627 17.5624 3.59639 16.7138 3.77433 15.7716C3.94885 14.8305 4.2249 13.6476 4.59561 12.2252C4.96633 10.804 5.17849 9.96785 5.23553 9.72033C4.97431 9.18764 4.842 8.49183 4.842 7.63633C4.842 6.95307 5.0553 6.31316 5.48305 5.71088C5.91194 5.11089 6.45376 4.8109 7.11078 4.8109C7.61382 4.8109 8.00393 4.97744 8.28339 5.31165C8.56399 5.64473 8.70087 6.06449 8.70087 6.57665C8.70087 7.11961 8.52065 7.90553 8.15792 8.93327C7.79518 9.96215 7.61496 10.7298 7.61496 11.2397C7.61496 11.7564 7.79975 12.1887 8.16932 12.5275C8.53405 12.8665 9.01637 13.0501 9.51417 13.0397C9.96587 13.0397 10.3845 12.937 10.7735 12.7306C11.1564 12.5301 11.4878 12.244 11.7419 11.8944C12.2954 11.1351 12.6899 10.2719 12.902 9.35646C13.0115 8.8751 13.0959 8.41769 13.1483 7.98766C13.2042 7.55534 13.2282 7.14698 13.2282 6.75916C13.2282 5.33675 12.7765 4.22802 11.8788 3.43411C10.9765 2.64021 9.80162 2.24554 8.35639 2.24554C6.71269 2.24554 5.33819 2.77709 4.23744 3.84361C3.13556 4.90671 2.58119 6.2584 2.58119 7.89754C2.58119 8.25914 2.63595 8.60818 2.73975 8.94582C2.84127 9.28231 2.95191 9.55037 3.07168 9.74885C3.19031 9.9439 3.3021 10.1344 3.40361 10.3101C3.50628 10.4857 3.55989 10.6112 3.55989 10.6865C3.55989 10.9169 3.49943 11.2169 3.37738 11.5876C3.25077 11.9583 3.10134 12.1431 2.92111 12.1431C2.904 12.1431 2.83328 12.1306 2.71009 12.1043C2.28344 11.9769 1.89813 11.7388 1.59338 11.4142C1.26993 11.0778 1.01466 10.6819 0.841676 10.2485C0.669181 9.81655 0.534831 9.37036 0.440161 8.91502C0.337879 8.48416 0.287333 8.04265 0.289593 7.59983Z"/>
  </symbol>
</svg>